<?xml version="1.0" encoding="UTF-8" standalone="no"?>
<svg
   xmlns:dc="http://purl.org/dc/elements/1.1/"
   xmlns:cc="http://creativecommons.org/ns#"
   xmlns:rdf="http://www.w3.org/1999/02/22-rdf-syntax-ns#"
   xmlns:svg="http://www.w3.org/2000/svg"
   xmlns="http://www.w3.org/2000/svg"
   xmlns:sodipodi="http://sodipodi.sourceforge.net/DTD/sodipodi-0.dtd"
   xmlns:inkscape="http://www.inkscape.org/namespaces/inkscape"
   version="1.1"
   id="svg2"
   width="512"
   height="512"
   viewBox="0 0 512 512"
   sodipodi:docname="favicon.svg"
   inkscape:version="1.0.2 (e86c870879, 2021-01-15)">
  <metadata
     id="metadata9">
    <rdf:RDF>
      <cc:Work
         rdf:about="">
        <dc:format>image/svg+xml</dc:format>
        <dc:type
           rdf:resource="http://purl.org/dc/dcmitype/StillImage" />
      </cc:Work>
    </rdf:RDF>
  </metadata>
  <defs
     id="defs7" />
  <sodipodi:namedview
     pagecolor="#ffffff"
     bordercolor="#666666"
     borderopacity="1"
     objecttolerance="10"
     gridtolerance="10"
     guidetolerance="10"
     inkscape:pageopacity="0"
     inkscape:pageshadow="2"
     inkscape:window-width="1366"
     inkscape:window-height="731"
     id="namedview5"
     showgrid="false"
     inkscape:zoom="1.1152344"
     inkscape:cx="83.390543"
     inkscape:cy="256"
     inkscape:window-x="0"
     inkscape:window-y="0"
     inkscape:window-maximized="1"
     inkscape:current-layer="svg2" />
  <ellipse
     style="opacity: 0.8; fill: rgb(255, 255, 255);"
     id="path833"
     cx="255.536"
     cy="255.926"
     rx="256.232"
     ry="255.727" />
  <path
     style="fill:#ff1d5d;stroke-width:0.689813;fill-opacity:1"
     d="M 281.075 385.172 C 280.822 384.919 280.611 362.336 280.605 334.988 C 280.598 307.64 280.336 284.857 280.021 284.36 C 279.555 283.625 274.946 283.56 255.371 284.015 L 231.294 284.574 L 231.505 292.507 C 231.622 296.87 232.445 318.599 233.335 340.794 C 234.225 362.989 234.699 381.417 234.388 381.746 C 234.077 382.075 231.28 382.601 228.173 382.914 C 219.848 383.753 184.62 385.092 177.847 384.826 L 171.998 384.597 L 171.509 381.493 C 169.484 368.627 166.194 301.057 164.675 241.116 C 163.733 203.934 164.033 132.887 165.137 131.784 C 165.553 131.368 170.672 130.73 176.519 130.364 C 190.293 129.502 226.312 128.376 226.982 128.786 C 227.267 128.96 227.5 146.418 227.5 167.581 C 227.5 206.317 227.991 228.296 228.889 229.749 C 229.249 230.333 231.394 230.344 237.232 229.793 C 241.554 229.386 252.996 228.724 262.659 228.323 C 272.321 227.921 280.358 227.462 280.517 227.303 C 280.677 227.143 281.224 210.94 281.733 191.296 C 282.848 148.278 283.687 127.789 284.364 127.111 C 284.641 126.834 294.055 126.516 305.285 126.405 C 326.532 126.194 346.501 127.029 347.648 128.176 C 348.075 128.603 347.927 133.377 347.232 141.52 C 344.247 176.547 340.792 257.703 339.234 329.412 C 338.838 347.623 338.337 367.249 338.12 373.025 L 337.726 383.527 L 335.556 383.893 C 333.499 384.24 293.583 385.621 285.387 385.628 C 283.268 385.63 281.328 385.425 281.075 385.172 Z"
     id="path881" />
</svg>
