<?xml version="1.0" encoding="UTF-8" standalone="no"?>
<svg
   xmlns:dc="http://purl.org/dc/elements/1.1/"
   xmlns:cc="http://creativecommons.org/ns#"
   xmlns:rdf="http://www.w3.org/1999/02/22-rdf-syntax-ns#"
   xmlns:svg="http://www.w3.org/2000/svg"
   xmlns="http://www.w3.org/2000/svg"
   xmlns:sodipodi="http://sodipodi.sourceforge.net/DTD/sodipodi-0.dtd"
   xmlns:inkscape="http://www.inkscape.org/namespaces/inkscape"
   version="1.1"
   id="svg2"
   width="512"
   height="512"
   viewBox="0 0 512 512"
   sodipodi:docname="fav.svg"
   inkscape:version="1.0.2 (e86c870879, 2021-01-15)">
  <metadata
     id="metadata8">
    <rdf:RDF>
      <cc:Work
         rdf:about="">
        <dc:format>image/svg+xml</dc:format>
        <dc:type
           rdf:resource="http://purl.org/dc/dcmitype/StillImage" />
        <dc:title></dc:title>
      </cc:Work>
    </rdf:RDF>
  </metadata>
  <defs
     id="defs6" />
  <sodipodi:namedview
     pagecolor="#ffffff"
     bordercolor="#666666"
     borderopacity="1"
     objecttolerance="10"
     gridtolerance="10"
     guidetolerance="10"
     inkscape:pageopacity="0"
     inkscape:pageshadow="2"
     inkscape:window-width="1366"
     inkscape:window-height="731"
     id="namedview4"
     showgrid="false"
     inkscape:zoom="0.54715685"
     inkscape:cx="348.46967"
     inkscape:cy="492.21594"
     inkscape:window-x="0"
     inkscape:window-y="0"
     inkscape:window-maximized="1"
     inkscape:current-layer="g835"
     inkscape:document-rotation="0" />
  <g
     inkscape:groupmode="layer"
     inkscape:label="Image"
     id="g10">
    <g
       id="g879"
       transform="translate(11.055274,-1.4453278)">
      <g
         id="g835"
         transform="translate(-138.55328,68.674073)">
        <path
           style="fill:#c5043b;stroke-width:0.525462"
           d="m 324.58331,317.15492 c 0.88036,-2.60103 4.34095,-12.72725 7.69025,-22.50269 3.51345,-10.25481 6.08952,-18.60449 6.08952,-19.73787 0,-2.71449 -1.10289,-3.61739 -12.61108,-10.3242 -15.79391,-9.20447 -18.70151,-11.36437 -20.04095,-14.88735 -0.82723,-2.17589 -0.0473,-3.91531 4.06334,-9.06343 4.63483,-5.80441 5.05511,-6.90235 3.30468,-8.63319 -2.31297,-2.28699 -27.86387,-18.60996 -30.05399,-19.19969 -1.81311,-0.48822 -2.82187,-0.40362 -6.18834,0.51898 -4.48214,1.22834 -5.9899,1.10916 -10.40987,-0.82287 -7.39074,-3.23059 -14.9764,-3.67869 -24.34659,-1.4382 -4.43247,1.05986 -6.68051,1.32152 -10.02065,1.16633 -5.02399,-0.23342 -7.51788,-1.25459 -10.45475,-4.2808 -4.95152,-5.10223 -3.46162,-10.93271 3.98438,-15.59214 1.76118,-1.10209 2.94168,-2.21281 2.94567,-2.77161 0.005,-0.57665 -1.74789,-2.18081 -4.5911,-4.20369 -6.22063,-4.42581 -9.58968,-7.74977 -9.58968,-9.46136 0,-2.13065 2.34581,-4.45654 5.42539,-5.37929 1.9823,-0.59395 3.79247,-0.72298 6.67909,-0.47607 5.4784,0.4686 5.85983,-0.0258 3.98809,-5.16841 -4.5702,-12.55661 2.08408,-15.63404 15.30522,-7.07826 2.09613,1.35644 4.3811,2.60932 5.07775,2.78417 1.78048,0.44687 3.45954,-1.3415 3.45954,-3.68483 0,-2.82561 1.96522,-4.75846 4.83814,-4.75846 4.57756,0 6.6228,2.96554 9.29152,13.47245 1.77411,6.9848 2.84894,9.34717 5.80829,12.76646 3.50509,4.0498 5.3432,7.04617 7.97572,13.00133 4.20412,9.51034 6.08422,11.59104 20.42879,22.60833 4.76857,3.66247 16.23676,12.49538 25.48489,19.62869 9.24812,7.13328 17.11086,13.08489 17.47274,13.22576 1.27955,0.49807 3.27327,-0.41623 4.00202,-1.8353 0.83496,-1.62583 4.57657,-15.70377 4.9209,-18.51491 0.31186,-2.54602 -0.82319,-3.44886 -9.05543,-7.203 -11.08862,-5.05672 -19.16095,-10.41644 -27.35801,-18.16462 -6.24184,-5.90005 -11.21409,-12.08845 -18.61705,-23.17052 -7.03015,-10.5239 -8.60931,-13.51837 -9.80715,-18.59621 -0.88205,-3.73938 -0.87869,-3.8452 0.16898,-5.25461 0.58805,-0.79111 1.6553,-1.50928 2.37167,-1.59592 2.21024,-0.26731 3.54991,1.36282 4.37646,5.32534 1.04562,5.0129 2.68059,8.31166 7.93112,16.00215 5.9366,8.69541 9.44969,12.93506 15.77856,19.04181 6.13214,5.91694 9.33445,8.42343 18.01534,14.10079 12.27757,8.02962 18.33787,10.54669 28.26474,11.73936 8.68025,1.04291 14.36821,0.78909 19.05433,-0.85021 9.3984,-3.28782 17.38552,-9.92614 24.02721,-19.96972 4.498,-6.80192 5.16154,-8.75432 5.10412,-15.01795 -0.0279,-3.03454 -0.235,-7.33077 -0.46047,-9.54718 -0.39551,-3.88844 -0.36231,-4.07742 0.94626,-5.38598 2.69671,-2.69671 4.04443,-1.32522 5.30795,5.40154 1.81463,9.66108 0.67374,16.98626 -4.14427,26.60912 -3.11241,6.21629 -6.26696,10.23002 -12.19622,15.51796 -7.39829,6.59815 -14.95332,10.20565 -24.58167,11.73779 -3.68427,0.58627 -5.53163,1.13573 -6.25694,1.86105 -0.9979,0.99788 -1.00042,1.07412 -0.0833,2.50823 2.1885,3.42172 8.30982,10.5777 9.52,11.12909 2.04789,0.93307 3.24872,0.76557 14.28399,-1.99242 28.21167,-7.05079 60.37937,-12.58163 86.02515,-14.79095 8.51121,-0.73322 10.47765,-1.47406 12.78732,-4.81754 3.54113,-5.12605 15.49464,-14.81532 22.11068,-17.92248 4.43721,-2.08386 9.99335,-2.58771 11.68218,-1.05935 1.7865,1.61678 2.67644,3.82356 2.31617,5.74374 -0.18002,0.95955 -1.63622,3.41756 -3.23611,5.46225 -1.59986,2.04469 -2.83312,4.10213 -2.74059,4.5721 0.22001,1.11771 0.84826,1.41609 6.47374,3.07463 9.11608,2.68767 16.54941,7.15421 18.584,11.16675 0.54774,1.08028 1.16306,3.19549 1.36736,4.70048 0.33487,2.46729 0.24427,2.86342 -0.92139,4.02909 -2.69747,2.69746 -8.75431,3.18517 -14.18254,1.142 -1.88225,-0.70849 -4.66641,-1.4532 -6.18693,-1.65489 l -2.76462,-0.36676 0.36415,3.09993 c 0.20031,1.70495 0.69307,4.40044 1.09517,5.98997 0.40203,1.58951 0.88896,4.2153 1.08208,5.83504 0.33251,2.78949 0.26258,3.04583 -1.32431,4.8532 -2.13796,2.43502 -5.01534,3.31141 -7.47161,2.27575 -0.94982,-0.40049 -3.3064,-2.41718 -5.2369,-4.4815 -1.93044,-2.06434 -3.94679,-3.75334 -4.48083,-3.75334 -1.29793,0 -2.94432,1.15961 -6.72454,4.73626 -1.73533,1.64189 -3.91079,3.37603 -4.83439,3.85364 -3.85695,1.9945 -7.79298,0.39231 -10.10773,-4.11445 -1.33336,-2.59598 -1.34356,-2.71168 -1.19423,-13.59353 0.12677,-9.23477 0.0205,-11.17361 -0.66896,-12.22603 -1.30656,-1.99406 -3.54376,-1.73697 -23.39013,2.68781 -5.63558,1.25646 -15.77245,3.41446 -22.52643,4.79556 -12.45317,2.54652 -14.78134,3.39868 -14.78134,5.41032 0,0.51239 1.18229,4.76467 2.6273,9.4495 1.44503,4.68483 2.62731,9.20086 2.62731,10.03563 0,0.83476 -0.53203,2.12289 -1.18228,2.8625 -1.43577,1.63306 -3.63109,2.08777 -15.54899,3.22065 -14.24259,1.35383 -14.34568,1.60835 -5.54593,13.69254 3.35376,4.60549 8.64606,12.50328 11.76068,17.55063 l 5.66295,9.17701 c -17.23066,1.98307 -108.99058,19.4315 -104.03466,5.78007 z m 175.31752,-63.2721 c 0.50018,-0.5527 1.80884,-3.09192 2.90806,-5.64272 2.18193,-5.06322 3.71864,-6.66407 6.39708,-6.66407 1.45605,0 2.33673,0.70164 6.49244,5.1725 3.46222,3.72472 5.04732,5.08062 5.66326,4.84426 1.08524,-0.41642 0.90754,-1.01325 -3.24288,-10.89004 -5.23406,-12.45576 -5.09151,-12.62221 7.91072,-9.2357 5.23018,1.36226 10.08824,2.69687 10.79566,2.96584 3.61018,1.37257 5.20596,-1.50121 2.13285,-3.84094 -5.08162,-3.86894 -9.17282,-4.78734 -19.16485,-4.30214 -10.36147,0.50315 -11.54275,-0.35666 -9.07871,-6.608 1.25045,-3.17241 1.24844,-3.15278 0.32017,-3.15278 -1.06392,0 -11.72878,11.30495 -12.98165,13.76076 -1.17918,2.31137 -2.36257,8.75657 -2.90196,15.80483 -0.29294,3.82848 -0.19306,4.95962 0.59158,6.69963 1.06867,2.36994 2.62898,2.7784 4.15823,1.08857 z M 275.7888,205.51696 c 2.44103,-1.24531 2.96965,-2.56881 2.47314,-6.19151 -0.41753,-3.04611 -1.97075,-5.55428 -6.89805,-11.13908 -2.15167,-2.43879 -4.72827,-5.98729 -5.72574,-7.88555 -2.25791,-4.29676 -3.78664,-5.75788 -6.70112,-6.4046 -2.71884,-0.60331 -4.69436,-1.85557 -11.57534,-7.3374 -6.13397,-4.88678 -6.87266,-5.31908 -8.72123,-5.10428 -1.60992,0.18706 -2.56489,2.12508 -2.05109,4.1623 0.17424,0.69084 1.98082,3.22168 4.01469,5.62408 4.56746,5.39512 5.28093,7.48357 3.30982,9.68809 -1.23687,1.38333 -2.7129,1.14703 -9.29956,-1.48879 -6.27575,-2.51141 -7.4161,-2.66636 -8.37829,-1.13852 -0.88034,1.39794 0,2.34967 4.96226,5.37233 9.28002,5.65128 12.04168,7.65468 12.37331,8.97599 0.60586,2.41379 -1.19831,3.30823 -8.98586,4.45495 -5.62985,0.82899 -8.14597,2.11945 -8.14597,4.17786 0,1.95388 0.93895,2.4683 5.91822,3.24241 3.37951,0.52539 4.90065,0.44925 11.85556,-0.5935 11.00575,-1.65011 15.38893,-1.39716 20.62521,1.19024 4.46305,2.20535 7.20739,2.30433 10.95004,0.39498 z m 84.77119,5.75129 c -4.62385,-1.21159 -11.78921,-4.85463 -16.41683,-8.34672 -8.98415,-6.77955 -19.95515,-20.14533 -23.5081,-28.63951 -0.97926,-2.34099 -2.26916,-5.35895 -2.86656,-6.7066 -0.69882,-1.57641 -0.96454,-2.93506 -0.74506,-3.8096 0.28827,-1.14851 0.63577,-1.35933 2.24062,-1.35933 1.63373,0 2.44452,0.51779 5.79596,3.70132 2.14309,2.03573 5.21903,4.54731 6.83541,5.5813 8.91881,5.70531 21.97276,9.58353 35.12243,10.43458 4.2041,0.2721 6.32608,0.12319 10.75484,-0.75468 11.31469,-2.2428 13.04017,-1.393 13.92373,6.85744 0.66975,6.25391 -2.16985,13.58667 -6.83002,17.63737 -4.39769,3.82252 -11.647,6.46844 -17.60295,6.42482 -1.58951,-0.0115 -4.60609,-0.47081 -6.70347,-1.02039 z m 16.2066,-7.80699 c 3.68322,-1.4187 4.91337,-2.72485 6.27449,-6.6621 3.21413,-9.29759 2.89366,-9.5656 -9.01215,-7.53714 -9.24664,1.5754 -20.19468,1.23595 -26.99573,-0.83703 -6.44137,-1.96335 -6.21712,-1.91881 -7.01859,-1.39424 -1.39622,0.91379 0.0215,2.64092 6.76983,8.24876 8.80432,7.31611 9.98444,8.13194 12.98531,8.9769 3.82232,1.07625 13.28791,0.63343 16.99684,-0.79515 z m 40.8098,-45.82601 c -1.25112,-0.72872 -1.19189,-3.67365 0.10707,-5.32509 0.56466,-0.71787 3.2248,-2.56572 5.91144,-4.10635 6.53548,-3.74775 13.91155,-8.53663 19.24586,-12.49534 6.20372,-4.60389 12.05856,-6.10261 12.94381,-3.31335 0.46299,1.45869 -0.64237,5.78485 -2.12639,8.32212 -1.63844,2.80139 -3.62315,3.95801 -14.72096,8.57874 -4.88464,2.0338 -11.18224,4.86985 -13.99456,6.30232 -5.39921,2.75008 -5.90287,2.88935 -7.36635,2.03695 z m -76.586,-0.45639 c -0.72251,-0.22448 -3.9642,-1.50468 -7.20372,-2.84488 -6.75239,-2.79346 -9.91588,-3.10985 -13.74077,-1.37426 -2.90181,1.31673 -4.09461,1.31235 -4.8064,-0.0177 -0.42997,-0.80346 -0.36003,-1.49046 0.29168,-2.86386 2.63662,-5.55628 13.7782,-8.6128 20.46732,-5.6149 4.22104,1.89178 6.56354,3.78541 8.18968,6.62047 1.82851,3.1878 1.92262,4.68352 0.36352,5.77557 -1.27792,0.89508 -1.61223,0.92508 -3.56131,0.3195 z m 41.77419,-1.10666 c -2.46415,-1.16606 -5.08795,-1.24641 -13.17448,-0.40349 -4.80497,0.50086 -6.09199,0.48861 -6.75828,-0.0643 -1.96313,-1.62925 -0.12906,-5.46499 3.6805,-7.69757 1.96895,-1.15388 3.31428,-1.49507 6.65838,-1.68866 10.91394,-0.63179 19.55226,4.89279 15.08532,9.64767 -1.42238,1.51406 -2.63199,1.55952 -5.49144,0.20639 z m -93.26943,-22.5754 c -3.33269,-1.84146 -8.54653,-3.17174 -15.48893,-3.95194 -9.95948,-1.11926 -13.08672,-2.01954 -15.54126,-4.47408 -1.39215,-1.3922 -1.3043,-3.72826 0.19322,-5.13508 1.49162,-1.40132 2.83896,-1.42264 7.02205,-0.11115 1.85803,0.58253 6.26535,1.24539 10.30567,1.54997 10.01424,0.75492 13.08409,2.02115 16.57143,6.83533 1.91452,2.64287 2.1772,4.98621 0.65057,5.80323 -1.33011,0.71184 -1.54385,0.68212 -3.71275,-0.51629 z m 8.74894,-9.10224 c -0.91036,-0.96531 -2.34257,-2.88544 -3.18263,-4.26698 -1.51942,-2.49872 -2.65468,-3.4293 -14.76878,-12.10636 -7.2915,-5.22273 -11.81599,-9.685593 -11.81599,-11.65505 0,-2.070432 1.10032,-3.451967 2.74932,-3.451967 1.61022,0 8.7763,4.233118 14.15715,8.362867 7.85176,6.02612 19.96884,17.28807 21.25401,19.75407 1.32185,2.53638 -1.04935,5.11851 -4.7004,5.11851 -1.62931,0 -2.36911,-0.35162 -3.69268,-1.75509 z m 115.36507,-4.65555 c -0.93752,-0.93755 -0.75997,-3.62237 0.35796,-5.41225 0.54153,-0.86701 5.56537,-6.19603 11.1641,-11.84227 7.66065,-7.725659 10.63493,-11.101453 12.02005,-13.642654 3.1173,-5.719121 6.40217,-6.367919 6.72953,-1.329142 0.29379,4.522044 -1.36547,6.877723 -12.83346,18.220176 -5.65559,5.59365 -10.98198,11.17522 -11.8365,12.40349 -1.28769,1.85099 -1.84604,2.23321 -3.26233,2.23321 -0.93984,0 -1.99254,-0.28375 -2.33935,-0.63056 z m -92.06085,-13.412 c -1.88636,-0.71221 -5.0489,-3.75619 -6.9515,-6.690861 -1.13215,-1.746293 -3.81805,-6.721946 -5.96871,-11.057004 -2.15062,-4.335058 -4.73432,-9.030916 -5.74151,-10.435242 -2.08199,-2.902848 -2.20185,-3.518149 -0.91173,-4.680763 1.69104,-1.523933 3.53042,-1.631036 5.01738,-0.292149 2.54717,2.29353 16.06493,21.472308 17.11784,24.286494 1.85782,4.965445 1.9304,6.382055 0.40514,7.907295 -1.38601,1.38604 -1.63261,1.46602 -2.96691,0.96223 z m 59.10485,-4.45577 c -1.94994,-2.317405 -1.62241,-4.301667 2.10732,-12.766633 4.90308,-11.127943 6.59795,-15.887643 7.84629,-22.034661 1.24713,-6.141331 2.04184,-7.993514 3.64844,-8.503432 2.74764,-0.87206 5.1656,3.99706 5.91744,11.916082 0.44427,4.679154 -0.62883,8.108226 -4.3212,13.80816 -1.63287,2.52071 -4.25902,7.472519 -5.83598,11.00402 -1.5769,3.531501 -3.23985,6.834714 -3.69542,7.340464 -1.38574,1.5384 -4.02943,1.18198 -5.66689,-0.764 z m -32.1406,-6.727492 c -1.70027,-0.685062 -2.02959,-1.654209 -3.30151,-9.717372 -1.12223,-7.113965 -4.51797,-25.346235 -5.05963,-27.165757 -0.35495,-1.192435 1.57213,-3.048282 3.16528,-3.048282 1.58537,0 3.83145,2.627341 6.27275,7.337539 2.28318,4.405245 3.77995,9.074615 4.78648,14.932041 1.19726,6.967545 1.05546,11.581607 -0.45577,14.827168 -1.52647,3.27822 -2.73472,3.911585 -5.4076,2.834663 z"
           id="path883"
           sodipodi:nodetypes="cssssssssssssscsssssssssssssssssssssssssssssssssssssssssssssssssssssscsssssssssssssssssssssccsssssssssssssssssssssssssssscsssssssssssssssssssssssssscssssssssssssssssssssssssssssssssssssssssssssssssssssssssssssssssssssssssssssssssssss" />
        <path
           style="fill:#151e55;stroke-width:0.525462"
           d="m 321.40948,324.41237 c 0,0 3.20823,-8.73445 8.35592,-23.64489 7.87325,-22.80541 9.44575,-27.87225 9.04346,-29.13978 -0.5282,-1.66419 -2.75511,-3.48931 -7.77294,-6.37052 -9.1071,-5.22917 -19.52096,-11.60859 -21.46979,-13.15208 -1.07084,-0.8481 -2.44991,-2.58105 -3.06471,-3.85103 -1.01377,-2.0941 -1.04955,-2.47235 -0.38458,-4.06382 0.40324,-0.96516 2.42464,-3.85196 4.49191,-6.41515 3.75095,-4.65066 4.35476,-6.17273 3.10191,-7.8189 -1.26868,-1.66693 -28.92131,-19.28633 -30.8311,-19.64461 -1.15807,-0.21727 -3.18418,-0.0169 -5.29307,0.52349 -4.75407,1.21814 -6.87477,1.09632 -10.93344,-0.62798 -7.90872,-3.35998 -14.87912,-3.77614 -24.4472,-1.45956 -9.69603,2.34755 -15.81718,1.52065 -19.92125,-2.69114 -5.12597,-5.26042 -4.12282,-10.70011 2.82825,-15.33629 5.25366,-3.50408 5.31368,-3.25547 -2.05056,-8.4968 -5.98597,-4.26034 -7.88477,-6.07633 -8.29195,-7.93024 -0.44264,-2.01544 0.75468,-3.77581 3.57671,-5.2587 1.93301,-1.01574 2.93597,-1.15568 7.63071,-1.06475 6.56264,0.12709 6.65717,0.0133 4.66404,-5.61938 -1.50492,-4.25284 -1.75745,-7.08781 -0.81556,-9.155 1.84258,-4.04408 7.65891,-2.92794 17.33613,3.32671 1.79392,1.1595 3.77959,2.10818 4.41246,2.10818 1.50834,0 2.89004,-1.57353 2.89004,-3.29131 0,-2.42861 0.97036,-4.08511 2.85404,-4.87216 5.10102,-2.13135 8.33576,1.56929 11.0399,12.62989 1.84631,7.552 2.61012,9.15821 6.76778,14.23167 2.5424,3.10234 4.45733,6.2907 7.10088,11.82288 1.9908,4.16625 4.59375,8.78543 5.78418,10.26487 1.19043,1.47943 6.7208,6.22893 12.28964,10.55443 29.64561,23.02666 44.17493,34.09794 45.32217,34.53533 1.73738,0.66234 3.82141,-0.34599 4.52512,-2.18939 0.9257,-2.42496 4.3069,-15.50514 4.55879,-17.63566 0.17142,-1.45011 -0.0315,-2.29492 -0.74121,-3.08605 -0.5375,-0.59914 -4.76057,-2.91139 -9.38463,-5.13833 -20.1337,-9.69639 -30.08888,-18.71587 -44.64737,-40.45087 -7.05418,-10.53148 -8.66997,-13.60422 -10.03275,-19.07925 -0.81667,-3.28087 -0.81846,-3.63993 -0.0241,-4.85217 1.11063,-1.69503 3.12434,-2.19979 4.68812,-1.17515 0.91683,0.60071 1.42483,1.78858 2.10347,4.91845 1.14541,5.28259 2.83004,8.552 8.98262,17.43272 6.33952,9.15053 12.30315,15.92093 18.96254,21.52782 9.62567,8.10433 24.51157,17.34394 31.79043,19.73216 4.14556,1.36017 15.1925,2.97182 20.37014,2.97182 11.09023,0 24.01606,-8.13777 32.20752,-20.27698 6.29063,-9.32235 7.4633,-13.62336 6.01618,-22.06612 -1.08293,-6.31787 -0.80807,-8.7738 1.12365,-10.03951 1.96979,-1.29067 2.91242,-0.40271 4.06144,3.82586 0.70449,2.5926 0.99649,5.50662 1.02197,10.19805 0.0325,6.03322 -0.10033,6.97491 -1.63366,11.56015 -2.62836,7.85958 -5.85859,13.06827 -11.93476,19.24441 -8.75103,8.89503 -16.3698,13.0446 -27.34154,14.89161 -7.99958,1.34668 -8.8288,2.04929 -6.43826,5.45522 2.32247,3.30908 7.90708,9.83881 8.84304,10.33971 1.78062,0.95298 4.53242,0.52397 18.43455,-2.87401 7.6223,-1.86304 17.51101,-4.118 21.97496,-5.01101 19.05476,-3.81191 46.72105,-7.84476 61.0661,-8.90147 4.15345,-0.30595 7.25488,-0.80157 8.2562,-1.3194 0.88215,-0.45615 2.93544,-2.49829 4.56296,-4.5381 4.59211,-5.75531 16.72938,-15.23786 22.2309,-17.3684 1.62893,-0.63082 4.38046,-1.25177 6.11449,-1.3799 2.64653,-0.19555 3.38186,-0.0522 4.5797,0.89271 1.56872,1.23753 2.58481,4.06168 2.13197,5.92566 -0.15978,0.65725 -1.66546,3.03569 -3.34619,5.2854 -1.68117,2.25026 -2.92904,4.42098 -2.77391,4.82522 0.155,0.40415 3.03626,1.60228 6.40258,2.66249 14.50889,4.56957 20.34598,9.50746 19.96319,16.88802 -0.15518,2.99261 -0.20615,3.08512 -2.26065,4.10754 -3.03254,1.50915 -9.06489,1.45463 -12.68107,-0.11461 -3.4807,-1.51047 -8.3293,-2.13699 -8.7111,-1.12564 -0.14943,0.39585 0.17835,2.84785 0.72844,5.44888 1.84128,8.70631 2.03528,10.77501 1.16769,12.45269 -1.11304,2.1524 -3.69757,3.56959 -6.51415,3.57192 -2.27766,0.001 -2.50912,-0.15238 -6.3057,-4.20171 -5.12277,-5.46395 -5.49385,-5.47624 -10.96154,-0.36292 -6.47863,6.05872 -9.52616,6.97414 -13.01632,3.90978 -3.61539,-3.17433 -3.98358,-4.80896 -3.79756,-16.86035 0.09,-5.82726 -0.0241,-11.1265 -0.25301,-11.77609 -0.84867,-2.40645 -5.04417,-2.15297 -19.78858,1.19552 -4.47955,1.01733 -15.12015,3.28448 -23.64576,5.03813 -8.52562,1.75364 -16.03315,3.52689 -16.68341,3.94057 -0.71752,0.45645 -1.18229,1.27591 -1.18229,2.08462 0,0.73288 1.19402,5.27924 2.65339,10.10303 2.85861,9.44893 3.00143,11.5742 0.86895,12.93005 -1.65595,1.05284 -5.72323,1.7515 -15.51694,2.66535 -4.71854,0.44029 -9.02847,1.041 -9.57763,1.33492 -1.358,0.72677 -2.14541,2.33346 -1.71217,3.49365 0.19667,0.52667 2.93361,4.50448 6.08205,8.83954 5.70184,7.85072 7.14982,10.03706 13.91991,21.01846 l 6.35832,9.49183 z m 22.64658,-7.3932 c 22.05625,-3.44717 59.86293,-7.05611 73.91872,-7.05611 2.22765,0 4.1998,-0.24189 4.38251,-0.53753 0.4675,-0.75647 -3.16396,-6.87285 -9.19631,-15.48905 -2.83272,-4.04605 -6.57527,-9.64604 -8.31684,-12.44443 -4.4391,-7.13284 -21.60715,-30.2665 -31.5152,-42.4663 -7.79963,-9.60361 -10.7955,-12.61108 -12.56262,-12.61108 -1.1275,0 -2.03738,2.72509 -4.0778,12.21258 -3.41881,15.8972 -7.21568,28.00305 -12.2381,39.01993 -1.44929,3.17904 -4.08999,8.9646 -5.8682,12.85679 -6.4482,14.114 -11.4436,27.37561 -10.74044,28.51339 0.18581,0.30062 1.22722,0.36884 2.48692,0.16289 1.19196,-0.19488 7.36928,-1.16736 13.72736,-2.16106 z m -1.37687,-53.75896 c 1.41165,-1.41168 2.78196,-5.92434 2.59089,-8.53234 -0.16306,-2.22661 -0.16322,-2.22677 -10.62305,-10.28863 -5.75296,-4.4341 -11.06043,-8.21269 -11.79434,-8.3969 -1.12396,-0.28209 -1.70455,0.0718 -3.6815,2.24381 -2.80554,3.08246 -5.32917,6.92167 -5.32917,8.10734 0,1.31481 1.67139,2.58322 10.77196,8.17492 18.11492,11.13038 16.43492,10.32208 18.06521,8.6918 z m 78.79196,-0.74933 c 3.16023,-1.03538 3.46905,-2.34073 2.48481,-10.50208 -0.92861,-7.69978 -1.70634,-9.46344 -4.2854,-9.71805 -0.83844,-0.0828 -7.7543,0.66974 -15.36855,1.67224 -10.50019,1.38247 -14.08567,2.04135 -14.84429,2.72787 -1.50119,1.35856 -1.2919,4.04293 0.47645,6.10996 0.81209,0.94933 1.97494,2.5933 2.58405,3.65329 1.13505,1.97516 1.72998,2.74091 4.43994,5.71444 l 1.55847,1.71004 10.51958,-0.37009 c 5.78575,-0.20355 11.38149,-0.65248 12.43494,-0.99762 z m 80.41595,-13.71813 c 0.82588,-1.75931 1.82834,-4.11369 2.22774,-5.23196 0.93953,-2.63046 2.72626,-4.00958 5.19467,-4.00958 1.80811,0 2.26853,0.35887 6.09389,4.74975 3.78149,4.34054 5.9922,5.93834 6.92532,5.00523 0.39613,-0.39615 -0.0509,-1.6243 -4.35887,-11.96735 -3.04242,-7.30495 -3.36474,-9.37164 -1.56919,-10.06067 0.43477,-0.16683 5.2251,0.90338 10.64513,2.37827 5.42007,1.4749 10.4458,2.78258 11.16831,2.90597 1.65415,0.28248 3.43747,-0.96966 3.00096,-2.10714 -0.59771,-1.55765 -5.3391,-4.55929 -8.99343,-5.69351 -3.29323,-1.02212 -4.3598,-1.0947 -11.56015,-0.78672 -9.37165,0.40085 -10.58563,0.0734 -10.51623,-2.83651 0.0236,-0.99967 0.48548,-2.9323 1.02592,-4.29475 0.54044,-1.36242 0.80874,-2.65098 0.5963,-2.86347 -0.53026,-0.53021 -11.05972,10.02274 -12.99736,13.02631 -1.77967,2.75872 -2.91631,8.11168 -3.45785,16.28461 -0.3748,5.65641 -0.10427,7.37637 1.39601,8.87668 1.61962,1.61962 3.36952,0.47917 5.17883,-3.37516 z M 274.64916,204.01692 c 6.25598,-2.13162 5.59517,-8.18789 -1.80864,-16.57627 -3.64865,-4.13384 -5.83247,-7.20958 -8.57847,-12.08202 -1.13459,-2.01316 -1.82777,-2.60601 -3.88148,-3.31962 -4.35792,-1.51428 -6.56765,-2.83711 -11.95851,-7.15884 -7.24307,-5.80656 -9.49746,-6.92401 -10.9793,-5.44216 -0.98682,0.98678 -1.10228,3.5018 -0.23589,5.1381 0.33419,0.63126 2.11592,2.91301 3.95936,5.07055 3.59898,4.21224 4.26411,5.69559 3.51232,7.83315 -0.90573,2.57549 -2.55058,2.55294 -9.24843,-0.12678 -6.55786,-2.62375 -7.80814,-2.85824 -8.80905,-1.65222 -1.15506,1.39177 -0.17061,3.08054 2.71917,4.66471 5.31184,2.9119 12.97085,8.14892 13.82573,9.45361 1.68331,2.56904 -0.52324,3.92087 -7.88045,4.82791 -6.38216,0.78684 -9.99213,3.02439 -8.71857,5.40405 1.30384,2.43618 9.05403,3.33313 16.86323,1.9516 8.71399,-1.54158 14.02514,-1.64906 18.18816,-0.36805 1.99018,0.6124 4.32787,1.58949 5.19487,2.17131 1.91089,1.28232 4.48807,1.35171 7.83595,0.21098 z m 87.79806,5.3483 c -12.75138,-2.96057 -24.96484,-12.39129 -35.87916,-27.70451 -3.46279,-4.8584 -4.89771,-7.47899 -7.02609,-12.83174 -2.92452,-7.35477 -2.92226,-8.23381 0.022,-8.52588 1.45252,-0.14409 2.17804,0.31589 5.46437,3.46449 6.02136,5.769 11.57845,9.02608 20.77107,12.17422 11.27889,3.86259 23.99374,5.10915 33.01981,3.23726 6.36306,-1.31963 8.4873,-1.38132 10.04298,-0.29172 1.63949,1.14838 2.14797,2.30424 2.68595,6.10569 1.49326,10.55232 -4.93687,20.24615 -15.63926,23.5771 -4.35898,1.35666 -9.68725,1.67136 -13.46155,0.79509 z m 12.08562,-7.3089 c 5.94548,-1.5843 7.52375,-3.18498 9.55079,-9.68638 1.60113,-5.13541 1.36671,-6.06464 -1.59347,-6.31633 -1.05602,-0.0898 -5.16356,0.35554 -9.12786,0.98962 -9.74163,1.55814 -18.69854,1.2555 -25.628,-0.86591 -2.60104,-0.7963 -5.43853,-1.46784 -6.30554,-1.49233 -1.33947,-0.0378 -1.57639,0.15122 -1.57639,1.25766 0,1.02799 1.54895,2.6107 7.35647,7.51668 7.3359,6.19716 10.15096,8.08647 13.13653,8.81652 2.67334,0.6537 11.41822,0.51839 14.18747,-0.21953 z m 43.46747,-46.87149 c -0.6423,-0.44989 -1.16783,-1.28924 -1.16783,-1.86521 0,-2.59446 1.5251,-3.96626 10.0782,-9.06524 4.71664,-2.81184 11.17672,-7.01496 14.35576,-9.34027 6.13304,-4.48602 7.73764,-5.34587 10.93177,-5.85797 2.57922,-0.41351 4.2267,0.98525 3.74253,3.17755 -1.83117,8.29152 -2.72083,8.98127 -21.5053,16.67379 -2.60103,1.06515 -6.96425,3.09736 -9.69601,4.516 -2.73178,1.41863 -5.10283,2.57934 -5.26907,2.57934 -0.16621,0 -0.82772,-0.3681 -1.47005,-0.81799 z m -83.40256,-2.96148 c -7.38972,-3.16613 -9.89832,-3.42924 -14.57978,-1.52919 -3.54801,1.44004 -4.59956,1.21624 -4.59956,-0.97887 0,-2.17475 2.94868,-5.3397 6.4413,-6.91373 2.30121,-1.03711 3.61855,-1.24191 8.00889,-1.24511 4.49464,-0.003 5.58513,0.17257 7.54005,1.21579 5.33959,2.84945 9.28376,8.17287 8.05439,10.87101 -0.93549,2.05318 -3.55948,1.71028 -10.86529,-1.4199 z m 48.3966,1.60222 c -2.41214,-1.27206 -5.23776,-1.4075 -12.92793,-0.61965 -6.29274,0.64467 -7.88193,0.31437 -7.88193,-1.63823 0,-1.67762 2.70565,-4.76039 5.46757,-6.22971 2.82641,-1.5036 10.62999,-1.62381 15.1252,-0.23299 5.84913,1.80974 8.55184,6.2367 5.34669,8.75785 -1.70744,1.34309 -2.52333,1.33716 -5.1296,-0.0373 z m -93.11406,-22.52012 c -1.05728,-1.0573 -7.78371,-3.06982 -12.16375,-3.63934 -2.38428,-0.31002 -6.28583,-0.81872 -8.67011,-1.13044 -6.64432,-0.86868 -11.42879,-3.38981 -11.42879,-6.02224 0,-1.61637 1.95692,-3.92154 3.32228,-3.91345 0.62929,0.004 2.62478,0.47096 4.43446,1.03829 1.8518,0.58052 6.33162,1.2706 10.24651,1.57837 8.27613,0.65065 11.70109,1.60645 14.57683,4.06798 2.41045,2.06328 4.34562,5.43258 4.10212,7.14229 -0.12626,0.8869 -0.57391,1.17665 -2.00401,1.29734 -1.01272,0.0854 -2.09974,-0.10299 -2.41554,-0.4188 z m 9.09884,-8.48072 c -0.80496,-0.6004 -1.91683,-1.98009 -2.47083,-3.06596 -1.75588,-3.44179 -3.62306,-5.17815 -11.76607,-10.94147 -9.35233,-6.61924 -16.0899,-12.852253 -16.0899,-14.884944 0,-1.570081 1.46367,-3.086772 2.97889,-3.086772 1.20794,0 8.44333,4.230771 12.59121,7.362443 5.0654,3.824423 10.35408,8.422873 16.61442,14.446203 5.28524,5.08512 6.17418,6.1757 6.17418,7.57471 0,3.18311 -5.05437,4.8166 -8.0319,2.59579 z m 115.09467,-5.22269 c -1.05637,-0.61529 -1.22583,-3.1091 -0.32982,-4.85298 0.32437,-0.63126 5.36002,-5.99513 11.19028,-11.91971 8.21308,-8.345885 10.99256,-11.522737 12.3412,-14.105483 1.916,-3.669204 4.12057,-5.200577 6.02196,-4.182993 0.84914,0.454436 0.95213,0.945849 0.70338,3.355905 -0.48964,4.743784 -2.38104,7.364952 -11.79174,16.341321 -4.73876,4.52005 -10.03405,9.95375 -11.76728,12.07488 -3.20795,3.92588 -4.30327,4.49162 -6.36798,3.28906 z m -94.4517,-14.92575 c -1.01151,-0.74322 -2.26122,-1.87663 -2.77717,-2.51869 -1.89391,-2.356906 -6.64242,-10.750309 -8.53859,-15.092712 -1.07252,-2.456193 -2.98505,-5.926921 -4.24998,-7.712733 -1.26501,-1.785811 -2.29995,-3.846497 -2.29995,-4.5793 0,-2.484485 3.85189,-3.306005 5.80456,-1.237984 1.43513,1.519928 14.34131,19.187775 15.70584,21.500429 1.613,2.733849 2.67968,7.94754 1.93386,9.45219 -0.88794,1.79133 -3.28709,1.87253 -5.57857,0.1888 z m 62.39856,-1.88903 c -1.12133,-0.6531 -2.49594,-3.203708 -2.49594,-4.631182 0,-0.57598 1.68404,-4.903075 3.74234,-9.615768 4.77917,-10.94255 6.45465,-15.738405 7.71634,-22.087117 1.21372,-6.107396 2.1317,-7.762608 4.30515,-7.762608 1.92341,0 2.80334,1.260353 3.85211,5.517345 2.08114,8.447349 1.55291,12.478611 -2.43415,18.575918 -2.85273,4.362661 -5.75065,9.936575 -7.96299,15.316352 -1.97643,4.80605 -4.04386,6.24744 -6.72286,4.68706 z m -33.58652,-8.11784 c -1.58861,-0.862736 -1.43701,-0.305172 -3.56798,-13.121259 -0.86495,-5.20207 -2.16957,-12.387432 -2.89913,-15.967472 -1.69691,-8.32701 -1.69823,-9.370554 -0.0131,-10.138484 1.97007,-0.897631 3.56742,0.09139 5.84024,3.616193 4.19366,6.503499 6.70825,14.82404 7.35994,24.353135 0.30487,4.458419 0.21597,5.303429 -0.79991,7.599995 -1.9719,4.457796 -3.12997,5.173291 -5.92033,3.657892 z"
           id="path881"
           sodipodi:nodetypes="cssssssssssssssssssssssssssssssssssssssssssssssscssssssssssssssssssssssscsssscsssssssssssccsssssssssssssssssssssssssssssscsssssssssssssscsssssssssssssssssssssssssssssssssssssssssssssssssssssssssssssscsssssssssssssssssssssssssssssssssssssssssssssssssssssssssscsscssscc" />
      </g>
    </g>
  </g>
</svg>
