<?xml version="1.0" encoding="UTF-8" standalone="no"?>
<svg
   xmlns:dc="http://purl.org/dc/elements/1.1/"
   xmlns:cc="http://creativecommons.org/ns#"
   xmlns:rdf="http://www.w3.org/1999/02/22-rdf-syntax-ns#"
   xmlns:svg="http://www.w3.org/2000/svg"
   xmlns="http://www.w3.org/2000/svg"
   xmlns:sodipodi="http://sodipodi.sourceforge.net/DTD/sodipodi-0.dtd"
   xmlns:inkscape="http://www.inkscape.org/namespaces/inkscape"
   version="1.1"
   id="svg2"
   width="633.59998"
   height="368.95999"
   viewBox="0 0 633.59998 368.95999"
   sodipodi:docname="heroes-generation-logo.png.svg"
   inkscape:version="1.0.2 (e86c870879, 2021-01-15)">
  <metadata
     id="metadata8">
    <rdf:RDF>
      <cc:Work
         rdf:about="">
        <dc:format>image/svg+xml</dc:format>
        <dc:type
           rdf:resource="http://purl.org/dc/dcmitype/StillImage" />
        <dc:title></dc:title>
      </cc:Work>
    </rdf:RDF>
  </metadata>
  <defs
     id="defs6" />
  <sodipodi:namedview
     pagecolor="#ffffff"
     bordercolor="#666666"
     borderopacity="1"
     objecttolerance="10"
     gridtolerance="10"
     guidetolerance="10"
     inkscape:pageopacity="0"
     inkscape:pageshadow="2"
     inkscape:window-width="1366"
     inkscape:window-height="731"
     id="namedview4"
     showgrid="false"
     inkscape:zoom="0.38689832"
     inkscape:cx="139.80682"
     inkscape:cy="51.245656"
     inkscape:window-x="0"
     inkscape:window-y="0"
     inkscape:window-maximized="1"
     inkscape:current-layer="g10" />
  <g
     inkscape:groupmode="layer"
     inkscape:label="Image"
     id="g10">
    <g
       id="g879"
       transform="translate(11.055274,-1.4453278)">
      <path
         style="fill:#c5043b;stroke-width:0.32"
         d="m 79.386311,350.69372 c -2.833171,-0.92416 -5.316352,-3.41091 -6.364605,-6.37373 -1.66686,-4.71126 -1.674073,-12.59728 -0.01571,-17.19798 1.359908,-3.77274 4.237757,-6.56224 7.912019,-7.66907 3.965101,-1.19444 10.857219,-0.40256 13.82073,1.58795 1.3631,0.91555 1.513456,2.0191 0.708371,5.1991 l -0.567101,2.24 -2.027939,0.096 c -1.182298,0.056 -2.209907,-0.055 -2.464317,-0.26617 -0.240006,-0.19917 -0.531088,-0.99373 -0.646848,-1.76567 -0.11576,-0.77197 -0.394233,-1.55603 -0.618832,-1.74243 -0.800905,-0.6647 -4.513987,-0.7776 -6.067075,-0.18445 -3.12936,1.19511 -4.171267,3.76151 -4.166457,10.26272 0.0042,5.62269 0.536736,7.66947 2.508729,9.64147 1.620256,1.62026 3.302215,1.99875 5.977299,1.34506 l 1.74544,-0.42653 0.09292,-2.45018 0.09292,-2.45017 -1.372922,-0.92826 c -1.345082,-0.90944 -1.370659,-0.96032 -1.261229,-2.50982 0.06143,-0.86986 0.259066,-1.76157 0.439181,-1.98157 0.235962,-0.28819 1.691808,-0.4 5.209123,-0.4 3.521939,0 4.970435,0.11142 5.200451,0.4 0.175351,0.22 0.415914,1.07139 0.534586,1.89197 0.207478,1.43462 0.172137,1.52525 -0.919632,2.35798 l -1.135405,0.86602 v 4.10022 4.10023 l -0.947622,0.67478 c -2.0364,1.45002 -4.386247,1.99779 -9.132378,2.12877 -3.894566,0.10749 -4.748371,0.0361 -6.533686,-0.54624 z m 388.453679,0.22589 c -2.09485,-0.60535 -3.39181,-1.35143 -4.80375,-2.76336 -2.6791,-2.67911 -3.63469,-6.04052 -3.63779,-12.79626 -0.003,-6.61309 0.9167,-9.68278 3.83626,-12.804 3.29424,-3.52184 9.62758,-4.68989 15.38051,-2.83662 3.67414,1.1836 6.05814,4.09685 7.00387,8.55867 0.58144,2.74314 0.57987,9.50813 -0.003,12.25753 -0.97699,4.6097 -3.39581,7.87328 -7.14432,9.63956 -1.95965,0.92336 -2.4665,1.02051 -5.67194,1.08726 -2.1575,0.045 -4.07737,-0.0877 -4.96,-0.34278 z m 6.47004,-5.0137 c 1.69191,-0.46989 2.92717,-1.63091 3.80736,-3.57853 0.70736,-1.56521 0.76259,-2.08128 0.76259,-7.12739 0,-5.20566 -0.0362,-5.51728 -0.84134,-7.23424 -0.50909,-1.08569 -1.32064,-2.15981 -2.0551,-2.72 -1.06176,-0.80985 -1.48435,-0.92576 -3.37517,-0.92576 -2.4112,0 -3.40109,0.50535 -4.68502,2.39178 -1.01533,1.49174 -1.3553,2.91001 -1.57764,6.58163 -0.30198,4.98633 0.76084,9.60537 2.6098,11.3424 0.73718,0.69251 2.76044,1.56477 3.68448,1.58835 0.264,0.007 1.01552,-0.13645 1.67004,-0.31824 z m -350.77644,4.51949 c -0.18348,-0.34285 -0.33359,-1.28567 -0.33359,-2.09517 0,-1.34288 0.0981,-1.52973 1.12,-2.13264 l 1.12,-0.66083 v -10.37917 -10.3792 l -1.1547,-0.68128 c -1.15139,-0.67933 -1.1543,-0.68669 -1.01774,-2.57462 0.0845,-1.16781 0.31237,-2.00436 0.5947,-2.18303 0.75201,-0.47589 19.58697,-0.37876 20.24777,0.10442 0.4776,0.34923 0.54001,0.90104 0.46116,4.07749 l -0.0912,3.67357 -1.53377,0.27964 c -1.79342,0.32701 -2.52845,-0.12387 -3.11901,-1.91328 l -0.35686,-1.08131 H 135.97518 132.48 v 3.84 3.84 h 2.93669 c 2.91446,0 2.94319,-0.008 3.79453,-1.02755 0.80905,-0.96912 0.92865,-1.01005 2.1033,-0.72 l 1.24548,0.30755 v 3.988 3.988 l -1.26291,0.29866 c -1.18633,0.28057 -1.31386,0.23763 -2.1033,-0.708 -0.83042,-0.99469 -0.87528,-1.00666 -3.7771,-1.00666 H 132.48 v 4.3305 4.33046 l 3.59589,-0.0905 3.59589,-0.0905 0.721,-1.52 c 0.71514,-1.50765 0.73371,-1.52 2.28492,-1.52 0.94646,0 1.71001,0.176 1.93391,0.44579 0.2449,0.29511 0.33929,1.67447 0.27919,4.08 l -0.0908,3.63421 -10.46641,0.0843 c -10.09108,0.0813 -10.47838,0.062 -10.8,-0.53894 z m 47.67766,-0.004 c -0.18219,-0.34032 -0.33126,-1.19699 -0.33126,-1.90362 0,-1.09222 0.16783,-1.41273 1.12,-2.13901 l 1.12,-0.85427 v -10.51379 -10.51379 l -0.94409,-0.48822 c -0.51925,-0.26852 -1.07835,-0.7281 -1.24243,-1.02132 -0.42027,-0.75097 -0.0771,-3.0686 0.52517,-3.54691 0.52687,-0.41842 7.22183,-0.57339 8.61694,-0.19946 0.55594,0.14901 1.78197,2.27191 5.49551,9.51562 2.62896,5.12813 5.09672,10.18784 5.48393,11.24384 0.3872,1.056 0.79423,2.02093 0.90449,2.14426 0.11027,0.12332 0.15635,-3.69268 0.10241,-8.48 -0.0959,-8.51303 -0.1135,-8.71693 -0.8,-9.28144 -0.38606,-0.31744 -0.97162,-0.79917 -1.30124,-1.07053 -0.49223,-0.40518 -0.56334,-0.75946 -0.39796,-1.98282 0.1121,-0.82928 0.44031,-1.66676 0.74047,-1.88947 0.3554,-0.26369 1.75153,-0.4 4.0968,-0.4 2.34528,0 3.74141,0.13631 4.09681,0.4 0.58693,0.43547 1.05081,3.06842 0.63697,3.61543 -0.13958,0.18448 -0.72017,0.66112 -1.2902,1.05923 l -1.03643,0.72384 -0.0836,13.02073 -0.0836,13.02077 -3.31328,0.0915 c -2.12456,0.0587 -3.46973,-0.0383 -3.74935,-0.27033 -0.61809,-0.51296 -9.83116,-18.61095 -10.70119,-21.02122 -0.39706,-1.1 -0.74855,-2 -0.78109,-2 -0.0325,0 -0.001,3.996 0.0692,8.88 0.14163,9.79402 -0.0696,8.73174 2.08867,10.50518 0.44413,0.36493 0.52781,0.73892 0.37206,1.66282 -0.41935,2.48762 -0.0551,2.312 -4.79536,2.312 -3.9111,0 -4.31624,-0.0543 -4.61844,-0.61898 z m 53.76233,0.004 c -0.18347,-0.34285 -0.33359,-1.28567 -0.33359,-2.09517 0,-1.34288 0.0981,-1.52973 1.12,-2.13264 l 1.12,-0.66083 v -10.37917 -10.3792 l -1.15469,-0.68128 c -1.15139,-0.67933 -1.1543,-0.68669 -1.01774,-2.57462 0.0845,-1.16781 0.31236,-2.00436 0.59469,-2.18303 0.75202,-0.47589 19.58698,-0.37876 20.24777,0.10442 0.4776,0.34923 0.54001,0.90104 0.46117,4.07749 l -0.0912,3.67357 -1.53377,0.27964 c -1.79341,0.32701 -2.52844,-0.12387 -3.119,-1.91328 l -0.35686,-1.08131 h -3.49518 -3.49519 v 3.84 3.84 h 2.9367 c 2.91446,0 2.94319,-0.008 3.79453,-1.02755 0.80905,-0.96912 0.92865,-1.01005 2.1033,-0.72 l 1.24547,0.30755 v 3.988 3.988 l -1.2629,0.29866 c -1.18633,0.28057 -1.31386,0.23763 -2.10331,-0.708 -0.83041,-0.99469 -0.87528,-1.00666 -3.77709,-1.00666 h -2.9367 v 4.3305 4.33046 l 3.5959,-0.0905 3.59589,-0.0905 0.721,-1.52 c 0.71513,-1.50765 0.73371,-1.52 2.28492,-1.52 0.94645,0 1.71,0.176 1.93391,0.44579 0.2449,0.29511 0.33928,1.67447 0.27918,4.08 l -0.0908,3.63421 -10.46641,0.0843 c -10.09107,0.0813 -10.47837,0.062 -10.8,-0.53894 z m 47.67767,-0.004 c -0.18219,-0.34032 -0.33126,-1.28119 -0.33126,-2.09069 0,-1.34288 0.0981,-1.52973 1.12,-2.13264 l 1.12,-0.66083 v -10.37917 -10.3792 l -1.15469,-0.68128 c -1.15139,-0.67933 -1.1543,-0.68669 -1.01774,-2.57462 0.0845,-1.16781 0.31236,-2.00436 0.59469,-2.18303 0.62861,-0.3978 10.06187,-0.37418 14.05098,0.0352 4.09513,0.42024 6.51923,1.29434 8.07462,2.91162 1.42327,1.47994 1.96053,3.18135 1.95583,6.19373 -0.003,1.63549 -0.18242,2.58544 -0.66648,3.52 -0.74208,1.4327 -2.58618,3.28912 -4.15721,4.18496 -0.572,0.32618 -1.04,0.71526 -1.04,0.8647 0,0.14941 0.42412,0.62852 0.94249,1.06471 0.51837,0.43619 1.74528,2.28969 2.72647,4.11894 1.51425,2.82301 1.98863,3.43843 3.13751,4.07037 1.14825,0.63155 1.36803,0.91645 1.44916,1.87846 0.0526,0.62372 -0.0536,1.52647 -0.23596,2.00612 l -0.33158,0.87212 -3.76404,-0.0902 -3.76405,-0.0902 -1.04451,-2.08 c -0.57449,-1.144 -1.94249,-3.952 -3.04,-6.24 l -1.99549,-4.16 -1.85063,-0.0963 -1.85063,-0.0963 0.0906,3.55815 0.0906,3.55811 1.76,0.69933 c 1.75658,0.69795 1.76019,0.70224 1.85709,2.20726 0.1826,2.83607 0.24348,2.80973 -6.49709,2.80973 -5.50316,0 -5.91963,-0.0414 -6.22874,-0.61898 z m 15.88604,-18.45002 c 0.49649,-0.36793 1.11426,-1.26793 1.37284,-2 0.41351,-1.17068 0.41351,-1.49132 0,-2.66201 -0.75047,-2.12467 -1.75007,-2.6497 -5.29284,-2.77987 l -3.0173,-0.11082 v 4.22179 4.22179 l 3.0173,-0.11091 c 2.44613,-0.0899 3.18818,-0.2375 3.92,-0.77987 z m 33.8796,18.67696 c -0.071,-0.22438 -0.21821,-1.07536 -0.32708,-1.89104 -0.22409,-1.67885 0.13069,-2.2328 1.90477,-2.97405 1.04202,-0.43539 1.08637,-0.54595 5.29107,-13.19097 2.33213,-7.01354 4.38666,-12.93686 4.5656,-13.16291 0.23415,-0.29577 1.1866,-0.38549 3.39706,-0.32 l 3.07168,0.091 4.50832,13.04163 c 2.47955,7.17289 4.56755,13.0879 4.64,13.14444 0.0724,0.0565 0.67168,0.42752 1.33168,0.82445 1.05421,0.63399 1.2,0.87149 1.2,1.95475 0,0.67818 -0.14045,1.60244 -0.31207,2.05389 l -0.31209,0.82083 h -5.13584 -5.13584 l -0.3121,-0.82083 c -0.62252,-1.63737 -0.38643,-3.06905 0.65232,-3.95587 0.92932,-0.79334 0.9505,-0.86986 0.58183,-2.1033 -0.63031,-2.10889 -0.5553,-2.08 -5.39968,-2.08 h -4.41511 l -0.54659,1.6457 -0.54662,1.64573 1.17408,0.99427 c 1.1695,0.9904 1.17309,1.00118 0.9168,2.7543 l -0.25728,1.76 -5.20288,0.088 c -3.99735,0.0676 -5.23283,-0.006 -5.33203,-0.32 z m 17.20896,-13.28797 c 0.079,-0.132 -0.34493,-1.824 -0.94205,-3.76 -0.59709,-1.93599 -1.24391,-4.41942 -1.43735,-5.51871 -0.19344,-1.0993 -0.46204,-1.93053 -0.59692,-1.84717 -0.13485,0.0833 -0.34301,0.88899 -0.46256,1.7903 -0.11959,0.90135 -0.71456,3.27895 -1.32218,5.28358 -0.60765,2.00464 -1.1048,3.79044 -1.1048,3.96839 0,0.37523 5.6432,0.45568 5.86586,0.0836 z m 39.73542,13.28 c -0.0762,-0.22 -0.17971,-1.11452 -0.22995,-1.98784 -0.0875,-1.52054 -0.0405,-1.62118 1.10867,-2.37363 l 1.2,-0.78576 V 334.98629 324.4799 h -2.6832 c -2.52365,0 -2.71501,0.0486 -3.21837,0.81676 -0.46736,0.71328 -0.7255,0.80455 -2.0368,0.72 l -1.50163,-0.0968 v -3.2 -3.2 h 12.8 12.8 v 3.2 3.2 l -1.50163,0.0968 c -1.3113,0.0845 -1.56944,-0.007 -2.0368,-0.72 -0.50336,-0.76819 -0.69472,-0.81676 -3.21837,-0.81676 h -2.6832 v 10.50639 10.50637 l 1.2,0.78743 c 1.08352,0.71097 1.19293,0.9103 1.12729,2.0536 -0.16684,2.9054 0.25296,2.7062 -5.70342,2.7062 -3.9399,0 -5.31923,-0.10176 -5.42259,-0.4 z m 43.36998,-0.21897 c -0.18221,-0.34042 -0.33126,-1.28128 -0.33126,-2.09079 0,-1.34288 0.0981,-1.52972 1.12,-2.13264 l 1.12,-0.66083 V 335.15749 324.7783 l -1.15469,-0.68128 c -1.15139,-0.67933 -1.15431,-0.68669 -1.01776,-2.57463 0.0845,-1.16781 0.31238,-2.00436 0.59472,-2.18302 0.57075,-0.36121 9.58662,-0.38554 10.15113,-0.0274 0.24666,0.15648 0.44029,1.01931 0.48,2.13909 0.0636,1.79315 0.0208,1.90601 -0.96108,2.5328 l -1.02768,0.65603 -0.0122,10.49078 -0.0125,10.49082 1.15913,0.68387 c 1.14679,0.67664 1.15725,0.70198 0.98397,2.38099 -0.0963,0.93341 -0.26646,1.8448 -0.37802,2.02531 -0.12486,0.20205 -2.15961,0.32823 -5.2927,0.32823 -4.7047,0 -5.11494,-0.0469 -5.42112,-0.61898 z m 89.28,0 c -0.18221,-0.34042 -0.33127,-1.19709 -0.33127,-1.90371 0,-1.09223 0.16784,-1.41274 1.12,-2.13901 l 1.12,-0.85427 v -10.5138 -10.51379 l -0.94409,-0.48822 c -0.51927,-0.26851 -1.07834,-0.7281 -1.24243,-1.02131 -0.42026,-0.75098 -0.0771,-3.06861 0.52518,-3.54691 0.52685,-0.41842 7.22182,-0.5734 8.61693,-0.19947 0.55593,0.14901 1.78195,2.27191 5.49552,9.51563 2.62896,5.12812 5.0967,10.18783 5.48393,11.24383 0.3872,1.056 0.79421,2.02093 0.90448,2.14426 0.11028,0.12333 0.15636,-3.69267 0.1024,-8.48 -0.0959,-8.51302 -0.1135,-8.71693 -0.8,-9.28144 -0.38604,-0.31744 -0.97161,-0.79917 -1.30121,-1.07053 -0.49226,-0.40518 -0.56336,-0.75945 -0.39799,-1.98281 0.1121,-0.82928 0.44032,-1.66677 0.74048,-1.88947 0.3554,-0.26369 1.75152,-0.4 4.0968,-0.4 2.34528,0 3.74141,0.13631 4.0968,0.4 0.58695,0.43547 1.05082,3.06841 0.63696,3.61542 -0.13955,0.18448 -0.72016,0.66112 -1.29017,1.05923 l -1.03645,0.72384 -0.0836,13.02074 -0.0836,13.02076 -3.31328,0.0916 c -2.12457,0.0587 -3.46972,-0.0383 -3.74934,-0.27034 -0.61811,-0.51296 -9.83117,-18.61094 -10.70118,-21.02121 -0.39709,-1.1 -0.74858,-2 -0.78112,-2 -0.0325,0 0,3.996 0.0692,8.87999 0.14164,9.79402 -0.0696,8.73175 2.08868,10.50519 0.44412,0.36493 0.5278,0.73891 0.37206,1.66281 -0.41936,2.48762 -0.0551,2.312 -4.79536,2.312 -3.9111,0 -4.31622,-0.0543 -4.61843,-0.61897 z M 355.19999,290.52713 c -9.72064,-1.09289 -17.93453,-4.16601 -24.68784,-9.23664 -11.3555,-8.52613 -18.06289,-21.14946 -20.91946,-39.3705 -0.71487,-4.55991 -0.99505,-17.583 -0.49367,-22.94647 1.90913,-20.42277 10.44859,-36.4479 24.44667,-45.87656 5.10364,-3.43765 10.79568,-5.76023 17.78179,-7.25571 3.81264,-0.81614 4.50361,-0.86337 12.67251,-0.86608 7.65904,-0.003 9.07597,0.0798 12.48,0.72551 10.59952,2.01054 18.87917,6.26192 25.94115,13.32008 8.24506,8.24055 13.56921,19.86593 15.64877,34.16923 2.55257,17.55699 0.32153,35.50723 -6.06752,48.81728 -4.26576,8.88663 -9.65619,15.28355 -17.0841,20.27394 -6.90515,4.63919 -13.14352,6.9449 -21.96701,8.11904 -3.81964,0.50828 -13.72899,0.57911 -17.75129,0.12688 z m 16.31478,-30.04554 c 8.42179,-2.40997 14.84967,-9.22608 18.19911,-19.29832 2.02867,-6.1006 2.43388,-8.89189 2.42473,-16.70328 -0.006,-5.073 -0.15017,-7.50428 -0.58838,-9.92 -2.12643,-11.72209 -6.80896,-19.32787 -14.09418,-22.893 -3.5607,-1.74248 -5.76803,-2.26115 -10.41606,-2.44752 -5.08691,-0.20397 -7.73408,0.31954 -11.82227,2.33802 -5.03735,2.48708 -9.82103,7.77937 -12.63347,13.97664 -3.01213,6.63727 -4.36135,13.37807 -4.37002,21.83333 -0.006,5.83941 0.43258,9.69958 1.65203,14.54024 2.67779,10.62949 9.11421,17.28095 18.42784,19.04349 3.54749,0.67134 10.03942,0.44075 13.22067,-0.4696 z m -157.5058,27.96655 c -0.0926,-0.15848 -0.26646,-2.30415 -0.3864,-4.76815 -0.11995,-2.464 -0.56626,-10.888 -0.99181,-18.72 -0.42555,-7.832 -1.42793,-27.632 -2.22752,-44 -0.7996,-16.368 -1.73736,-35.22686 -2.08394,-41.90858 -0.35428,-6.83036 -0.50902,-12.2697 -0.35347,-12.42525 0.79843,-0.79843 27.35761,-2.25453 41.63416,-2.28258 11.20476,-0.022 12.27568,0.0256 16.16,0.71917 12.73555,2.27389 20.83073,7.43955 24.97392,15.93623 2.09043,4.28698 2.49933,6.50977 2.5241,13.72101 0.0208,6.04567 -0.0269,6.57488 -0.86068,9.55854 -2.30104,8.23406 -6.94081,14.97523 -13.16431,19.12656 -1.60216,1.06871 -2.96752,1.99425 -3.03412,2.05677 -0.0666,0.0625 0.88831,2.17116 2.12202,4.68589 1.23371,2.51474 3.21018,6.80424 4.39216,9.53224 5.80484,13.39754 14.88691,37.5288 14.88691,39.55484 0,0.60016 -0.38313,0.94935 -1.85908,1.69441 -3.60012,1.81733 -12.33026,4.36506 -22.39577,6.53577 -3.16191,0.6819 -3.67312,0.72129 -4.08,0.31442 -0.25583,-0.25583 -0.46515,-0.71926 -0.46515,-1.02984 0,-2.34239 -8.16265,-30.78759 -13.48415,-46.9896 -1.91643,-5.83479 -2.67568,-7.76 -3.06037,-7.76 -0.28139,0 -1.60599,0.2189 -2.94355,0.48644 -1.33756,0.26754 -3.72793,0.59169 -5.31193,0.72035 l -2.88,0.23392 0.0597,1.11965 c 0.0328,0.6158 0.28633,3.63964 0.56337,6.71964 1.21592,13.51771 3.02672,44.2234 2.66375,45.16928 -0.20987,0.54691 -2.67152,1.01127 -8.24677,1.55566 -4.66266,0.45529 -21.94202,0.80102 -22.15102,0.44321 z m 35.27102,-78.05283 c 6.87007,-1.10553 11.78657,-2.82557 14.55072,-5.09058 3.69705,-3.02946 5.00106,-10.30188 2.66216,-14.8468 -0.87162,-1.69372 -3.09299,-3.35124 -5.41566,-4.04099 -2.52209,-0.74899 -9.27213,-1.23741 -13.87722,-1.00413 -5.85329,0.2965 -10.17459,0.80463 -10.61852,1.24862 -0.27778,0.27782 -0.30189,1.05985 -0.0906,2.93856 0.15835,1.408 0.65059,6.71036 1.09386,11.78303 0.44327,5.07266 0.9015,9.37763 1.01829,9.56661 0.27297,0.44168 6.49487,0.11866 10.67696,-0.55432 z m 311.86034,77.25787 c -7.91772,-0.7501 -15.36608,-2.8941 -22.74035,-6.54578 -5.97827,-2.9604 -9.91856,-5.74605 -14.24028,-10.06741 -2.83261,-2.83237 -6.71972,-7.73545 -6.71972,-8.47605 0,-0.77571 8.77472,-8.85379 13.62228,-12.54079 2.70224,-2.05528 5.54198,-3.94316 5.93132,-3.94316 0.12557,0 1.06135,0.9 2.07949,2 8.64646,9.34161 15.20688,14.02206 22.36691,15.95741 3.44653,0.93159 9.66896,1.01585 12.48,0.16898 4.99527,-1.50489 8.32743,-5.24711 9.43872,-10.60026 1.13747,-5.47908 -1.39865,-10.35718 -7.47328,-14.37455 -3.67417,-2.42986 -7.31491,-4.17339 -15.40544,-7.37755 -7.79523,-3.08722 -19.29478,-8.55433 -22.92876,-10.90081 -5.88701,-3.80122 -10.27831,-8.3672 -12.61159,-13.11322 -2.05488,-4.17977 -2.44598,-5.93386 -2.6175,-11.73974 -0.16989,-5.7503 0.28432,-8.7925 1.88877,-12.65067 1.46108,-3.51337 3.243,-6.04142 6.49145,-9.20958 7.65043,-7.46141 18.65264,-11.49083 32.52653,-11.91246 15.16345,-0.46082 29.07414,3.43846 39.2495,11.00196 2.99533,2.22648 6.1616,5.33016 6.1616,6.0398 0,1.08545 -13.5327,16.13276 -15.41478,17.14001 -0.48483,0.25948 -1.00327,-0.0392 -2.89613,-1.66828 -5.59699,-4.81721 -13.15827,-8.70518 -19.6041,-10.08035 -2.80451,-0.59832 -7.71689,-0.66449 -10.24499,-0.13799 -6.20976,1.29324 -9.86813,5.37674 -9.34633,10.43248 0.53452,5.1788 4.93984,8.39027 17.34633,12.64541 14.03181,4.81258 23.0785,8.77144 29.28,12.81301 3.95575,2.578 8.88573,7.54202 10.94659,11.02221 3.61549,6.10547 4.89856,14.13756 3.61677,22.64131 -2.52675,16.76349 -16.30355,29.64052 -35.14649,32.85112 -4.364,0.74356 -11.7473,1.0313 -16.03652,0.62495 z m -380.71669,-0.46561 c -3.287,-0.2233 -11.063,-0.64685 -17.28,-0.94124 -24.87954,-1.17811 -39.36404,-2.01873 -39.64622,-2.30092 -0.79599,-0.79599 -1.73528,-46.99121 -1.44009,-70.82542 0.33149,-26.76519 0.85423,-41.02202 1.5795,-43.07764 0.55976,-1.58653 3.20127,-6.85946 4.29738,-8.57835 0.45735,-0.7172 3.65772,-5.984 7.11193,-11.704 3.45421,-5.72 7.751,-12.7712 9.54843,-15.66934 3.48147,-5.61348 3.86416,-6.46513 3.24198,-7.21482 -0.56634,-0.68239 -0.80599,-0.63447 -5.00494,1.0007 -8.60558,3.35123 -10.75276,3.85867 -11.69338,2.76346 -0.80047,-0.93203 -0.92275,-1.6235 -1.22573,-6.93122 -0.21616,-3.78698 -0.41417,-5.22759 -0.76701,-5.58043 -0.42082,-0.42082 -0.92894,-0.35317 -4.41055,0.58724 -10.4115,2.81221 -16.11662,5.43885 -20.78814,9.57086 -1.95428,1.72858 -2.8268,3.55292 -2.8268,5.91047 0,2.02027 0.30797,2.76448 2.4217,5.85189 2.56645,3.7487 2.91124,7.14209 0.88743,8.73403 -1.09432,0.86079 -1.93061,0.82901 -3.75841,-0.14284 -1.627043,-0.86511 -3.198198,-1.03911 -3.611837,-0.4 -0.142387,0.22 -0.275804,1.624 -0.29648,3.12 -0.05088,3.68144 -0.90182,7.22692 -1.889891,7.87433 -1.353187,0.88664 -2.429302,0.47005 -3.70079,-1.43267 -1.69984,-2.54372 -1.961565,-2.60324 -3.816669,-0.868 -1.227609,1.14828 -1.804185,1.46634 -2.658192,1.46634 -1.509484,0 -2.630649,-0.99465 -3.261264,-2.89325 -0.46416,-1.39745 -0.732345,-1.70608 -2.0728,-2.38534 -2.125247,-1.07694 -2.882799,-2.12724 -2.882799,-3.99682 0,-2.44568 0.500176,-3.30709 3.526031,-6.07261 2.643844,-2.41637 3.050874,-2.96717 5.891715,-7.97277 1.678416,-2.9574 3.619834,-6.02255 4.314263,-6.81147 1.737171,-1.97353 4.302995,-3.24487 8.836787,-4.37855 4.534886,-1.13396 5.823786,-1.62023 12.022966,-4.53595 8.45744,-3.97789 11.93164,-4.88514 35.48824,-9.26742 4.84,-0.90039 9.46373,-1.85089 10.27497,-2.11221 3.09742,-0.99778 6.01454,-4.74476 5.76187,-7.40102 -0.0202,-0.21307 -1.14755,-1.208804 -2.50508,-2.212743 -3.07341,-2.272899 -6.34661,-5.538237 -9.10169,-9.079849 -4.40921,-5.667959 -6.42813,-9.352016 -8.44956,-15.418467 -0.99175,-2.976317 -1.11731,-3.650131 -0.80708,-4.331024 0.3155,-0.692438 0.51066,-0.77769 1.3816,-0.603504 1.59386,0.318774 2.35917,1.311469 3.27457,4.247446 1.79664,5.762451 5.4275,11.576058 10.69691,17.127494 4.90422,5.166704 10.03098,8.830483 15.21689,10.874577 2.52709,0.99609 5.56454,0.85449 8.06383,-0.3759 2.37055,-1.167016 3.49224,-2.429477 5.09055,-5.729413 1.85828,-3.836665 2.61746,-6.089219 3.35958,-9.968192 0.69794,-3.647987 0.7228,-6.877363 0.11442,-14.863017 -0.20939,-2.748505 0.2674,-3.718253 1.54249,-3.137286 1.71809,0.782816 2.55781,4.259894 2.57376,10.657286 0.0135,5.413747 -0.58747,8.864969 -2.46559,14.159283 -2.31383,6.52254 -3.17933,7.94831 -6.26734,10.324479 -2.04073,1.57031 -2.53954,2.79492 -1.29882,3.18871 1.27105,0.40342 8.28747,-3.31704 14.12472,-7.489647 5.95285,-4.255229 12.21646,-10.561421 16.07357,-16.182825 2.46433,-3.591555 7.2413,-13.004573 7.47018,-14.72 0.12847,-0.962819 -0.0676,-1.874717 -0.79136,-3.68 -1.21171,-3.022528 -1.9734,-6.696736 -1.9734,-9.519276 0,-2.744077 -0.69926,-5.470215 -1.98835,-7.751744 -2.79519,-4.947139 -3.19006,-5.890317 -3.01809,-7.208979 0.17389,-1.333414 1.64325,-3.04 2.61741,-3.04 0.26447,0 2.05508,0.508909 3.97912,1.130909 3.29634,1.065638 3.56232,1.104141 4.60832,0.667091 1.4106,-0.589386 1.66761,-1.115075 1.91651,-3.920131 0.25532,-2.87728 1.33789,-6.514825 2.14524,-7.208216 0.86127,-0.739701 1.80523,-0.403446 3.21134,1.143928 0.65294,0.718531 2.21134,2.43354 3.46312,3.811132 1.25178,1.377591 2.8626,3.573591 3.5796,4.880001 0.717,1.306406 1.41439,2.375286 1.54976,2.375286 0.13537,0 1.11168,-0.4464 2.16957,-0.992 2.35639,-1.21528 4.11799,-1.316474 4.95359,-0.28455 1.23063,1.519763 0.43866,3.687827 -2.73137,7.477273 -2.67739,3.200544 -4.35402,6.624189 -5.81752,11.879276 -2.13757,7.675504 -4.96685,13.211517 -7.01465,13.725485 -0.46942,0.117817 -1.79926,-0.124877 -3.28606,-0.599702 -3.0937,-0.988004 -3.42481,-0.991738 -4.16793,-0.04702 -0.32827,0.417325 -2.42957,4.341325 -4.66957,8.72 -4.54529,8.885027 -6.59537,11.964236 -11.36123,17.064515 -1.79234,1.918115 -3.25881,3.747859 -3.25881,4.066102 0,0.318242 0.80867,2.274972 1.79704,4.348292 1.97865,4.15068 2.2777,5.95293 1.29854,7.82599 -0.90305,1.72749 -4.61701,4.11953 -15.02079,9.67437 -3.44299,1.8383 -4.4482,2.52336 -4.60205,3.13634 -0.10827,0.43136 0.0409,2.24709 0.3315,4.03496 1.45219,8.93458 2.02494,22.54667 1.34439,31.95082 l -0.24751,3.42016 1.38944,0.0998 1.38944,0.0998 v 5.6 c 0,5.64071 -0.71281,17.26114 -1.09694,17.88268 -0.12169,0.19691 -8.15383,0.98531 -19.50772,1.91478 -10.61546,0.86902 -19.44875,1.72795 -19.62952,1.90872 -0.20723,0.20723 -0.34293,3.61833 -0.36725,9.23124 l -0.0386,8.90257 11.99999,-0.16 c 6.6,-0.088 14.304,-0.16 17.12,-0.16 h 5.12 l -0.11834,12.32 c -0.0651,6.776 -0.21843,12.43015 -0.34076,12.56477 -0.12233,0.13461 -3.45307,0.10135 -7.40166,-0.0739 -3.94858,-0.17528 -11.60292,-0.41644 -17.00965,-0.53591 -9.48462,-0.20959 -9.83906,-0.19573 -10.07613,0.39392 -0.13513,0.33613 -0.24745,5.43514 -0.24958,11.33114 l -0.004,10.72 16.48,0.19245 c 15.06667,0.17595 22.00481,0.40625 23.92,0.79398 0.67911,0.13749 0.72,0.30103 0.72,2.87983 0,6.60434 -2.09856,26.23216 -2.9091,27.2088 -0.42019,0.5063 -0.52365,0.50574 -8.66726,-0.0475 z M 87.043504,153.2 c 0.348756,-0.572 0.63464,-1.27258 0.635296,-1.55685 6.4e-4,-0.28426 0.299648,-0.89626 0.664423,-1.36 0.761504,-0.96809 2.337453,-1.14343 3.355613,-0.37333 0.341638,0.2584 0.925497,0.4744 1.297462,0.48 0.667389,0.0101 1.129888,-0.79274 2.783097,-4.83076 0.601837,-1.47 0.941117,-1.67525 3.100602,-1.8757 2.227863,-0.20679 2.306243,-0.56027 0.966131,-4.3571 -0.895728,-2.53779 -0.983878,-3.12664 -0.91497,-6.11217 0.06249,-2.70746 -0.01862,-3.39869 -0.449292,-3.82937 -0.487395,-0.48739 -0.632064,-0.48486 -1.992893,0.0348 -2.128067,0.81272 -4.497866,2.81969 -5.602429,4.74467 -0.528857,0.92167 -1.704825,3.44465 -2.613264,5.60662 -1.908038,4.5409 -3.246559,6.27432 -5.869827,7.60157 -1.191264,0.60272 -1.841619,1.14758 -1.967248,1.64814 -0.229884,0.91593 0.365674,1.69944 1.291773,1.69944 0.967434,0 2.004928,0.80307 2.929373,2.26748 0.962579,1.52483 1.55391,1.57749 2.386153,0.21252 z M 232.00613,61.519998 c 1.86485,-2.114531 2.42669,-3.371804 5.27634,-11.807257 2.32758,-6.890077 2.47346,-7.476851 2.0894,-8.40407 -0.50806,-1.226557 -1.55712,-1.541645 -3.44854,-1.035766 -2.3349,0.624489 -2.59837,0.308944 -4.07984,-4.88624 -0.91547,-3.210362 -1.2604,-3.778946 -2.20944,-3.642108 -0.60152,0.08673 -0.69602,0.440898 -1.03529,3.879999 -0.31419,3.184861 -0.48805,3.906659 -1.09723,4.555101 -1.16603,1.24118 -2.6237,1.331695 -4.78788,0.297308 -1.02111,-0.488041 -2.0854,-0.799532 -2.36511,-0.692201 -0.64365,0.246992 -0.64777,1.497852 -0.0118,3.575235 0.26941,0.88 0.84678,3.904 1.28305,6.72 1.35042,8.716627 2.23429,10.725471 5.35925,12.180431 2.55924,1.191565 3.43724,1.062247 5.02706,-0.740432 z m 261.6975,225.667572 c -3.28701,-0.2233 -11.06301,-0.64685 -17.28,-0.94124 -24.89072,-1.17864 -39.36409,-2.01879 -39.64672,-2.30142 -0.44748,-0.44748 -0.87939,-12.83942 -1.29452,-37.14059 -0.37405,-21.89743 -0.0704,-52.93101 0.67401,-68.88432 0.28183,-6.03936 0.31603,-6.26058 1.06413,-6.88 0.48848,-0.40446 1.13171,-1.69995 1.74774,-3.52 0.53613,-1.584 2.64359,-7.75075 4.68327,-13.70388 2.13965,-6.24506 3.70845,-11.32992 3.70845,-12.02013 0,-1.6531 -0.67165,-2.20295 -7.68,-6.28732 -9.61831,-5.60542 -11.389,-6.92077 -12.20471,-9.06623 -0.50377,-1.32509 -0.0288,-2.38437 2.47453,-5.51952 2.82256,-3.53482 3.0785,-4.20345 2.01251,-5.25751 -1.40857,-1.39275 -16.96877,-11.33325 -18.30253,-11.69239 -1.10416,-0.29732 -1.71849,-0.2458 -3.76863,0.31605 -2.72957,0.74805 -3.64778,0.67547 -6.33949,-0.50112 -4.50087,-1.96739 -9.12045,-2.24028 -14.82679,-0.87584 -2.69932,0.64544 -4.06835,0.80479 -6.10246,0.71028 -3.05955,-0.14215 -4.5783,-0.76403 -6.36682,-2.60696 -3.01542,-3.107199 -2.10809,-6.657897 2.42644,-9.495432 1.07254,-0.671159 1.79145,-1.347578 1.79388,-1.687879 0.003,-0.351171 -1.06444,-1.328089 -2.79593,-2.56 -3.78829,-2.695267 -5.84,-4.719516 -5.84,-5.761856 0,-1.297542 1.42857,-2.71398 3.304,-3.275926 1.2072,-0.361712 2.30957,-0.440285 4.06749,-0.28992 3.33628,0.28537 3.56857,-0.01568 2.4287,-3.147501 -2.7832,-7.646831 1.26918,-9.520953 9.3207,-4.310582 1.27652,0.826058 2.66804,1.589046 3.09229,1.695526 1.08429,0.272144 2.10682,-0.816956 2.10682,-2.244019 0,-1.720758 1.1968,-2.897843 2.94637,-2.897843 2.78768,0 4.03321,1.805981 5.65843,8.204563 1.08041,4.253667 1.73497,5.69232 3.53718,7.774627 2.13456,2.466282 3.25395,4.291034 4.85712,7.917661 2.56026,5.791689 3.70522,7.058809 12.4409,13.768211 2.904,2.2304 9.888,7.60954 15.52,11.95364 5.632,4.34409 10.42032,7.96855 10.6407,8.05434 0.77923,0.30332 1.99338,-0.25348 2.43718,-1.11768 0.50848,-0.99011 2.78708,-9.56341 2.99677,-11.27536 0.18992,-1.5505 -0.50131,-2.10032 -5.51465,-4.38655 -6.75284,-3.07948 -11.6688,-6.34349 -16.66071,-11.062038 -3.80121,-3.593063 -6.82925,-7.361731 -11.33757,-14.110579 -4.28128,-6.408934 -5.24297,-8.232531 -5.97244,-11.324877 -0.53716,-2.277241 -0.53511,-2.341683 0.10291,-3.199999 0.35811,-0.481776 1.00806,-0.91913 1.44432,-0.971895 1.34601,-0.16279 2.16185,0.829939 2.66521,3.243069 0.63677,3.0528 1.63245,5.061705 4.82996,9.745126 3.61532,5.295405 5.75475,7.877299 9.60896,11.59624 3.7344,3.603347 5.68457,5.129772 10.97113,8.587223 7.4769,4.88994 11.16755,6.42281 17.2129,7.14913 5.28617,0.63512 8.75008,0.48055 11.60387,-0.51777 5.72352,-2.00224 10.58758,-6.0449 14.63229,-12.161329 2.73923,-4.142285 3.14332,-5.331277 3.10835,-9.145753 -0.017,-1.848 -0.14311,-4.464355 -0.28042,-5.814125 -0.24086,-2.368013 -0.22064,-2.483101 0.57626,-3.28 1.64227,-1.642265 2.46301,-0.80704 3.23248,3.289475 1.10509,5.883485 0.4103,10.344435 -2.52381,16.204649 -1.89542,3.785651 -3.81651,6.229963 -7.42736,9.450253 -4.50547,4.0182 -9.1064,6.21513 -14.96995,7.14818 -2.24368,0.35703 -3.3687,0.69165 -3.8104,1.13336 -0.60771,0.6077 -0.60925,0.65413 -0.0507,1.52748 1.33277,2.08379 5.06058,6.4417 5.79757,6.77749 1.24714,0.56823 1.97843,0.46622 8.69878,-1.21336 17.18058,-4.29385 36.77034,-7.66207 52.38832,-9.00752 5.18323,-0.44652 6.38077,-0.89768 7.78733,-2.93382 2.15651,-3.12171 9.43606,-9.02236 13.46515,-10.914584 2.70221,-1.269053 6.08583,-1.575888 7.11431,-0.645136 1.08796,0.984601 1.62992,2.328505 1.41052,3.49787 -0.10963,0.58436 -0.99644,2.08126 -1.97075,3.32645 -0.9743,1.24519 -1.72534,2.49815 -1.66899,2.78436 0.13398,0.68067 0.51658,0.86238 3.94243,1.87241 5.55159,1.63676 10.0784,4.35683 11.31744,6.80042 0.33357,0.65788 0.70829,1.94602 0.83271,2.86254 0.20393,1.50255 0.14876,1.74379 -0.56112,2.45367 -1.64272,1.64272 -5.33127,1.93973 -8.637,0.69546 -1.14627,-0.43146 -2.84179,-0.88498 -3.76777,-1.00781 l -1.68362,-0.22335 0.22176,1.88782 c 0.12199,1.0383 0.42208,2.67982 0.66695,3.64782 0.24483,0.968 0.54137,2.56707 0.65897,3.55348 0.2025,1.69876 0.15991,1.85487 -0.80649,2.95554 -1.30199,1.4829 -3.05428,2.01661 -4.55012,1.3859 -0.57843,-0.24389 -2.01356,-1.47203 -3.18921,-2.72918 -1.17562,-1.25716 -2.40355,-2.28574 -2.72877,-2.28574 -0.79043,0 -1.79306,0.70619 -4.09517,2.88433 -1.0568,0.99989 -2.38163,2.05596 -2.94409,2.34682 -2.34884,1.21463 -4.74583,0.23891 -6.15549,-2.50565 -0.812,-1.58092 -0.81821,-1.65138 -0.72727,-8.2783 0.0772,-5.62387 0.0125,-6.8046 -0.40739,-7.44551 -0.79568,-1.21436 -2.15811,-1.0578 -14.24432,1.63684 -3.432,0.76517 -9.60524,2.07937 -13.71833,2.92044 -7.58384,1.5508 -9.00167,2.06976 -9.00167,3.29482 0,0.31204 0.72,2.90163 1.6,5.75464 0.88,2.85301 1.6,5.60322 1.6,6.11158 0,0.50836 -0.324,1.29282 -0.72,1.74323 -0.87436,0.99452 -2.21129,1.27143 -9.46915,1.96134 -8.67357,0.82447 -8.73635,0.97947 -3.37741,8.3386 2.0424,2.80469 5.26535,7.61435 7.16212,10.68813 l 3.44867,5.58869 1.71789,0.16 1.71788,0.16 0.10477,3.84 c 0.10439,3.82515 -0.8327,19.04562 -1.21017,19.65639 -0.11056,0.17889 -8.74372,1.02058 -19.49927,1.90107 -10.61545,0.86902 -19.44873,1.72795 -19.6295,1.90872 -0.20723,0.20723 -0.34294,3.61833 -0.36726,9.23124 l -0.0386,8.90257 11.99999,-0.16 c 6.6,-0.088 14.304,-0.16 17.12,-0.16 h 5.12 l -0.11833,12.32 c -0.0651,6.776 -0.21843,12.43015 -0.34077,12.56477 -0.12234,0.13461 -3.45309,0.10135 -7.40166,-0.0739 -3.94858,-0.17528 -11.60292,-0.41644 -17.00967,-0.53591 -9.4846,-0.20959 -9.83904,-0.19573 -10.07609,0.39392 -0.13514,0.33613 -0.24746,5.43514 -0.2496,11.33114 l -0.004,10.72 16.48,0.19245 c 15.06665,0.17595 22.0048,0.40625 23.92,0.79398 0.6791,0.13749 0.72,0.30103 0.72,2.87983 0,6.60434 -2.09856,26.23216 -2.90909,27.2088 -0.42019,0.5063 -0.52365,0.50574 -8.66727,-0.0475 z m 52.03098,-158.19955 c 0.3046,-0.33659 1.10156,-1.88294 1.77097,-3.43635 1.32877,-3.08344 2.26461,-4.05834 3.89575,-4.05834 0.88672,0 1.42304,0.42729 3.95382,3.14999 2.10845,2.26831 3.07376,3.09404 3.44886,2.9501 0.6609,-0.2536 0.55268,-0.61706 -1.97488,-6.63191 -3.18748,-7.58541 -3.10067,-7.68678 4.81754,-5.62443 3.18512,0.8296 6.14362,1.64236 6.57443,1.80616 2.19856,0.83588 3.17037,-0.91422 1.29888,-2.33909 -3.09465,-2.35614 -5.58614,-2.91543 -11.67117,-2.61995 -6.31001,0.30641 -7.0294,-0.2172 -5.52883,-4.0242 0.76151,-1.93196 0.76029,-1.92 0.19498,-1.92 -0.64791,0 -7.14269,6.88458 -7.90567,8.38014 -0.71811,1.4076 -1.43878,5.33265 -1.76726,9.62496 -0.1784,2.3315 -0.11757,3.02035 0.36026,4.08 0.65081,1.44326 1.60102,1.69201 2.53232,0.66292 z M 409.25298,99.533773 c 1.48656,-0.758377 1.80848,-1.564377 1.50611,-3.770556 -0.25427,-1.855047 -1.20016,-3.382496 -4.20083,-6.783575 -1.31034,-1.485193 -2.87946,-3.646188 -3.48691,-4.802207 -1.37504,-2.616676 -2.30602,-3.50648 -4.0809,-3.900327 -1.65574,-0.367405 -2.85881,-1.130022 -7.04925,-4.46839 -3.73552,-2.97599 -4.18537,-3.239258 -5.31113,-3.108448 -0.98042,0.113917 -1.56199,1.294147 -1.24909,2.53479 0.10611,0.420717 1.2063,1.961968 2.4449,3.425005 2.78153,3.285565 3.21603,4.557402 2.01564,5.899933 -0.75324,0.842428 -1.65212,0.698524 -5.66332,-0.906656 -3.82186,-1.529418 -4.51632,-1.623786 -5.10228,-0.693344 -0.53612,0.851325 0,1.430921 3.02196,3.271686 5.65142,3.441562 7.33324,4.66161 7.5352,5.466269 0.36896,1.469971 -0.72976,2.014675 -5.47229,2.713014 -3.42851,0.504848 -4.9608,1.29072 -4.9608,2.544275 0,1.189882 0.57181,1.503162 3.60413,1.974583 2.05808,0.319964 2.98444,0.27359 7.2199,-0.361434 6.70237,-1.004896 9.37168,-0.850851 12.56051,0.724845 2.71795,1.343034 4.38922,1.403314 6.66845,0.240537 z M 74.453332,286.18666 c -0.117334,-0.11733 -0.215539,-10.59333 -0.218234,-23.28 -0.0026,-12.68667 -0.124608,-23.25542 -0.270918,-23.48613 -0.216275,-0.34104 -2.354438,-0.37095 -11.435097,-0.16 l -11.169085,0.25946 0.09814,3.68 c 0.05398,2.024 0.435955,12.104 0.848839,22.4 0.412883,10.296 0.632614,18.84491 0.488291,18.99757 -0.144323,0.15266 -1.441725,0.39645 -2.883114,0.54176 -3.861696,0.3893 -20.203619,1.01024 -23.345578,0.88706 l -2.713421,-0.10639 -0.22674,-1.44 c -0.939762,-5.96832 -2.465783,-37.31383 -3.170293,-65.12 -0.437019,-17.24862 -0.297822,-50.20689 0.214207,-50.71857 0.192765,-0.19263 2.567511,-0.4888 5.28,-0.65849 6.389807,-0.39976 23.098856,-0.92227 23.409668,-0.73205 0.132,0.0808 0.24,8.17939 0.24,17.99689 0,17.96915 0.227783,28.16524 0.644269,28.83913 0.167338,0.27076 1.162429,0.27608 3.87049,0.0207 2.004883,-0.18907 7.312719,-0.49611 11.795196,-0.68231 4.482474,-0.18619 8.210499,-0.39908 8.284499,-0.47308 0.074,-0.074 0.327754,-7.59052 0.563901,-16.70337 0.517126,-19.95582 0.906761,-29.46046 1.220601,-29.77492 0.1284,-0.12865 4.495754,-0.27618 9.705232,-0.32783 9.856377,-0.0977 19.119535,0.28964 19.651695,0.82179 0.19826,0.19827 0.12935,2.41283 -0.19263,6.19041 -1.38494,16.24869 -2.98769,53.89657 -3.71065,87.16171 -0.18361,8.448 -0.41604,17.55229 -0.51652,20.23175 l -0.18269,4.87174 -1.0067,0.16987 c -0.954365,0.16104 -19.47127,0.80152 -23.273359,0.805 -0.982669,9.6e-4 -1.882669,-0.0944 -1.999999,-0.2117 z M 460.87765,103.03624 c -2.81587,-0.73784 -7.17949,-2.95641 -9.99766,-5.083052 -5.47124,-4.128666 -12.15245,-12.268275 -14.31616,-17.441133 -0.59636,-1.425632 -1.38189,-3.263539 -1.7457,-4.084243 -0.42557,-0.960012 -0.58739,-1.787414 -0.45373,-2.32 0.17555,-0.69943 0.38717,-0.827814 1.36451,-0.827814 0.99492,0 1.48868,0.315328 3.52967,2.254061 1.30512,1.239734 3.17833,2.769257 4.16269,3.398944 5.43145,3.47447 13.38115,5.836259 21.38915,6.35454 2.56025,0.165703 3.85251,0.07502 6.54957,-0.45959 6.89052,-1.36584 7.94131,-0.848323 8.47939,4.176099 0.40787,3.80856 -1.32141,8.274128 -4.1594,10.740953 -2.67814,2.327875 -7.09289,3.939205 -10.71999,3.912645 -0.968,-0.007 -2.80506,-0.28672 -4.08234,-0.62141 z m 9.86963,-4.754361 c 2.24304,-0.863971 2.99219,-1.659405 3.82109,-4.057142 1.95737,-5.662128 1.76221,-5.825341 -5.48829,-4.590035 -5.6311,0.959404 -12.29833,0.752681 -16.44009,-0.509741 -3.92272,-1.195658 -3.78615,-1.168531 -4.27424,-0.849075 -0.85028,0.556489 0.0131,1.608291 4.12275,5.023401 5.36173,4.455424 6.08041,4.952256 7.9079,5.466826 2.32775,0.655427 8.09219,0.385756 10.35088,-0.484234 z M 108.45656,96.451757 c -0.57132,-0.6884 -0.48144,-2.432115 0.17717,-3.437289 1.06911,-1.631674 3.09244,-2.277786 7.68627,-2.45447 2.93455,-0.112868 4.37573,-0.301399 4.89236,-0.64 1.1885,-0.77896 3.28021,-5.44 2.44127,-5.44 -0.1025,0 -1.2185,0.45807 -2.48,1.017936 -1.95476,0.867539 -2.6955,1.023011 -5.01363,1.05231 -2.92578,0.03698 -3.44483,0.222006 -6.23898,2.224061 -2.37777,1.703705 -4.00102,1.467334 -4.00102,-0.582608 0,-0.749607 0.40862,-1.357674 1.86244,-2.771475 2.44696,-2.379594 4.66466,-3.253293 8.21756,-3.237434 1.408,0.0063 3.00097,-0.124518 3.53993,-0.290675 1.08996,-0.336019 2.6348,-1.855962 4.40663,-4.335613 1.02812,-1.438851 2.38304,-2.676502 2.9301,-2.676502 0.52119,0 0.76702,1.73785 0.45297,3.202201 -0.18719,0.87281 -0.29293,1.697373 -0.23498,1.832362 0.0579,0.134989 0.72244,0.196035 1.47667,0.135658 1.50785,-0.120711 2.30868,0.326592 2.30868,1.289507 0,0.34175 -1.10629,2.808118 -2.45843,5.480819 -2.74348,5.422931 -4.64839,7.703203 -7.27227,8.70527 -1.43903,0.549571 -2.06057,0.545859 -6.14243,-0.03669 -1.02992,-0.146986 -1.66604,-0.0086 -2.94937,0.641734 -1.87445,0.949859 -2.996,1.049808 -3.60094,0.320902 z m 59.81909,-4.252598 c -3.19527,-1.43255 -5.2846,-2.794486 -6.49654,-4.234809 -2.75947,-3.27944 -3.67944,-8.604352 -1.48656,-8.604352 0.63303,0 2.54255,1.943469 4.63274,4.71511 2.56896,3.406499 5.09605,4.866154 8.44498,4.877862 2.25745,0.0079 3.57881,-0.442057 5.12376,-1.744732 1.55551,-1.311594 2.27019,-3.001239 2.76708,-6.54201 0.45699,-3.25646 0.73645,-4.093875 1.60742,-4.816713 0.42044,-0.348938 0.60802,-0.323223 1.13747,0.155917 0.51905,0.469737 0.63356,0.985382 0.63158,2.844163 -0.005,5.030064 -1.24621,8.702025 -3.92136,11.604227 -2.00914,2.17966 -3.39155,2.766422 -6.79623,2.884665 -2.75625,0.09572 -2.99877,0.04677 -5.64434,-1.139328 z M 107.93092,81.055595 c -0.91289,-0.176698 -2.33236,-1.861092 -2.32602,-2.760151 0.009,-1.306505 0.7068,-1.80496 3.41528,-2.440323 0.9131,-0.214195 2.32725,-0.812493 3.14257,-1.329549 1.44153,-0.914198 2.80989,-1.355068 5.43435,-1.750889 1.54523,-0.233053 3.41851,-2.039056 4.01972,-3.87537 0.66876,-2.042585 2.40473,-5.675152 2.99345,-6.263871 0.30549,-0.305495 0.97715,-0.555444 1.49258,-0.555444 1.17605,0 2.2148,-1.008528 2.22474,-2.16 0.011,-1.276486 1.3148,-4.252086 2.52043,-5.752332 0.57295,-0.712954 1.96653,-2.046615 3.09685,-2.963696 2.28789,-1.856272 2.62296,-2.817159 1.28749,-3.692195 -2.58532,-1.693965 -1.3755,-5.319904 3.46728,-10.391776 1.42843,-1.496 3.38537,-3.653418 4.34875,-4.794259 2.05159,-2.429503 3.22683,-3.504432 5.884,-5.38175 1.89215,-1.336831 2.01138,-1.373784 4.18761,-1.297874 1.232,0.04298 3.61678,-0.03955 5.29952,-0.183394 2.37507,-0.203022 3.55628,-0.149428 5.28,0.239568 1.49842,0.33815 3.67728,0.489836 6.70047,0.466466 5.06385,-0.03914 7.19391,0.449274 11.04,2.531461 4.509,2.441065 6.0599,4.445395 6.07298,7.848524 0.006,1.51744 -0.10411,1.888218 -0.64584,2.178144 -0.98462,0.526951 -2.45969,-0.543881 -5.26085,-3.819126 -3.05704,-3.574427 -4.00972,-4.124615 -6.24755,-3.608063 -2.366,0.54614 -3.61255,0.46983 -7.03874,-0.430886 -4.39157,-1.154508 -8.04507,-1.501842 -11.59999,-1.102798 -3.40539,0.382259 -6.47026,1.163876 -6.9821,1.780607 -0.79172,0.953966 0.0494,1.099268 5.88274,1.016225 l 5.81935,-0.08284 1.92,0.96 c 3.29101,1.645501 5.52165,5.492733 3.6,6.208989 -1.01008,0.376493 -3.05024,-0.300064 -5.66024,-1.877053 -2.66526,-1.610371 -3.87587,-1.83872 -6.1867,-1.166941 -1.15703,0.336359 -3.00682,0.515005 -5.33258,0.515005 -3.8891,0 -5.01878,0.30295 -7.00974,1.879814 -0.984,0.779344 -2.87794,3.456503 -2.55121,3.606227 0.0553,0.02531 1.12354,0.07184 2.37395,0.103373 3.30922,0.08345 5.26245,1.348599 4.81772,3.120547 -0.22903,0.912541 -1.14694,1.374628 -3.65981,1.8424 -2.35973,0.439271 -2.82824,0.759674 -4.1352,2.827994 -0.63241,1.000803 -2.33312,2.971645 -3.77937,4.379645 -2.29341,2.232755 -2.74135,2.857561 -3.50413,4.887788 -0.86366,2.298711 -1.80418,3.272211 -3.16134,3.272211 -1.05701,0 -1.8432,1.152295 -2.45134,3.592858 -0.70528,2.830409 -1.11884,3.719683 -3.13728,6.746032 -1.77849,2.666569 -3.41104,3.740307 -5.69084,3.742896 -2.35635,0.0026 -3.80156,0.524492 -5.48293,1.979702 -1.26689,1.096489 -3.33886,2.298966 -3.67868,2.134934 -0.0496,-0.02397 -0.40936,-0.105341 -0.79935,-0.180825 z m 48.28224,-8.241703 c -1.11476,-0.414019 -2.38845,-1.090515 -2.83041,-1.503328 -1.68262,-1.571644 -2.17735,-3.581871 -1.11756,-4.540969 0.82186,-0.743776 1.34232,-0.666678 2.81613,0.417171 2.73781,2.013411 3.66006,1.874669 5.45799,-0.821104 0.67138,-1.006646 1.62792,-2.130726 2.12565,-2.497965 0.90349,-0.666604 0.90576,-0.666649 1.38512,-0.02771 0.77831,1.037434 0.36595,3.142701 -1.00563,5.134186 -1.58599,2.302787 -3.78054,4.629773 -4.34682,4.609142 -0.2517,-0.0092 -1.36971,-0.355417 -2.48447,-0.769433 z m 339.38682,-2.439526 c -0.76192,-0.443782 -0.72585,-2.237209 0.0652,-3.242918 0.34387,-0.437175 1.96387,-1.562496 3.6,-2.50072 3.98003,-2.282333 8.47197,-5.198707 11.72051,-7.609517 3.77799,-2.803715 7.34352,-3.716416 7.88263,-2.017788 0.28195,0.888323 -0.3912,3.522905 -1.29495,5.06807 -0.99779,1.706016 -2.20646,2.410384 -8.96489,5.224358 -2.97469,1.23856 -6.80986,2.96568 -8.52253,3.838038 -3.28806,1.674768 -3.59478,1.759578 -4.48602,1.240477 z M 448.95999,70.09643 c -0.44,-0.136707 -2.41415,-0.916329 -4.38698,-1.732496 -4.11213,-1.701184 -6.03866,-1.893862 -8.36797,-0.836909 -1.76717,0.801872 -2.49357,0.799207 -2.92704,-0.01075 -0.26185,-0.489299 -0.21926,-0.907676 0.17763,-1.74406 1.60567,-3.383706 8.39076,-5.245095 12.46436,-3.419408 2.57056,1.15207 3.99712,2.305273 4.98742,4.031792 1.11354,1.941328 1.17085,2.852208 0.22138,3.517251 -0.77824,0.545097 -0.98183,0.563363 -2.1688,0.194576 z m 25.44,-0.673942 c -1.50064,-0.710115 -3.0985,-0.75905 -8.02311,-0.245719 -2.92617,0.305018 -3.70995,0.297556 -4.11571,-0.03918 -1.19552,-0.992195 -0.0786,-3.328115 2.24138,-4.687731 1.19907,-0.702701 2.01836,-0.91048 4.05488,-1.028374 6.64646,-0.384755 11.9071,2.979648 9.18678,5.875315 -0.86621,0.922045 -1.60285,0.949728 -3.34422,0.125693 z M 176.83817,66.868984 c -1.95955,-0.586717 -3.50694,-3.069904 -2.77049,-4.445981 0.79996,-1.494739 1.86659,-1.487833 3.81547,0.0247 0.41973,0.32576 1.00479,0.592291 1.30013,0.592291 0.6303,0 1.86139,-1.26886 2.87188,-2.96 1.13137,-1.893424 2.58483,-1.464291 2.58483,0.763168 0,0.657344 -0.15257,1.600544 -0.33905,2.096 -0.57635,1.531319 -2.54455,3.277111 -4.27344,3.790535 -1.76522,0.524211 -1.88608,0.529491 -3.18933,0.139283 z M 417.59999,55.674328 c -2.02957,-1.121424 -5.20474,-1.931549 -9.43258,-2.406681 -6.06521,-0.681616 -7.96966,-1.229879 -9.46445,-2.724666 -0.8478,-0.84783 -0.7943,-2.270467 0.11767,-3.127203 0.90838,-0.853389 1.72889,-0.866374 4.27635,-0.06769 1.13152,0.354758 3.81552,0.758431 6.27603,0.943916 6.09856,0.459735 7.96806,1.230858 10.09181,4.162634 1.16592,1.609478 1.32589,3.036544 0.39619,3.534099 -0.81002,0.433507 -0.94019,0.415405 -2.26102,-0.314413 z m 5.328,-5.543158 c -0.5544,-0.587859 -1.4266,-1.7572 -1.93818,-2.598541 -0.92531,-1.521689 -1.61667,-2.0884 -8.99402,-7.37263 -4.44044,-3.180586 -7.1958,-5.898416 -7.1958,-7.097792 0,-1.260869 0.67008,-2.102208 1.6743,-2.102208 0.98061,0 5.34467,2.57792 8.62154,5.09289 4.78163,3.669833 12.1608,10.528233 12.94345,12.029999 0.80499,1.544624 -0.63904,3.117111 -2.86249,3.117111 -0.99223,0 -1.44276,-0.214132 -2.2488,-1.068829 z m 70.25599,-2.835171 c -0.57094,-0.570957 -0.46281,-2.205981 0.21799,-3.296 0.32979,-0.528 3.38925,-3.773312 6.79881,-7.211808 4.66525,-4.704835 6.47655,-6.760654 7.32007,-8.308216 1.8984,-3.482879 3.89885,-3.877989 4.09821,-0.809432 0.17891,2.753872 -0.83156,4.188453 -7.81543,11.095878 -3.44419,3.406467 -6.6879,6.805578 -7.20829,7.553578 -0.78419,1.127235 -1.12422,1.36 -1.98672,1.36 -0.57235,0 -1.21344,-0.1728 -1.42464,-0.384 z m -56.06399,-8.167754 c -1.14877,-0.433731 -3.07472,-2.287478 -4.23338,-4.074659 -0.68947,-1.063472 -2.32515,-4.093587 -3.63488,-6.733587 -1.3097,-2.64 -2.88314,-5.499723 -3.49651,-6.354941 -1.26791,-1.767801 -1.3409,-2.142512 -0.55523,-2.850531 1.02982,-0.928057 2.14998,-0.993282 3.05552,-0.177915 1.5512,1.396733 9.78336,13.076386 10.42457,14.790193 1.13139,3.023898 1.17559,3.886599 0.24672,4.815453 -0.84406,0.84408 -0.99424,0.892784 -1.80681,0.585987 z m 35.99417,-2.713513 c -1.18749,-1.411274 -0.98803,-2.619667 1.28333,-7.774733 2.98592,-6.776788 4.01808,-9.67539 4.7783,-13.418853 0.75949,-3.739999 1.24346,-4.867957 2.22186,-5.178491 1.67328,-0.5310748 3.14579,2.434163 3.60365,7.256755 0.27056,2.849551 -0.38295,4.937816 -2.63156,8.40901 -0.9944,1.535083 -2.59369,4.550677 -3.55404,6.70132 -0.96032,2.150643 -1.97303,4.162259 -2.25047,4.470259 -0.8439,0.936864 -2.45388,0.719808 -3.45107,-0.465267 z m -19.57325,-4.096966 c -1.03545,-0.417195 -1.236,-1.007394 -2.01059,-5.917767 -0.68342,-4.332322 -2.75139,-15.435563 -3.08125,-16.5436306 -0.21616,-0.7261792 0.95741,-1.8563686 1.92762,-1.8563686 0.96547,0 2.33331,1.6000204 3.82003,4.4684762 1.39043,2.682743 2.30195,5.526335 2.91491,9.09344 0.72912,4.243154 0.64276,7.053064 -0.27756,9.029573 -0.9296,1.996398 -1.66541,2.38211 -3.29316,1.726277 z"
         id="path883" />
      <path
         style="fill:#151e55;stroke-width:0.32"
         d="m 355.19999,290.52713 c -9.72064,-1.09289 -17.93453,-4.16601 -24.68784,-9.23664 -11.3555,-8.52613 -18.06289,-21.14946 -20.91946,-39.3705 -0.71487,-4.55991 -0.99505,-17.583 -0.49367,-22.94647 1.90913,-20.42277 10.44859,-36.4479 24.44667,-45.87656 5.10364,-3.43765 10.79568,-5.76023 17.78179,-7.25571 3.81264,-0.81614 4.50361,-0.86337 12.67251,-0.86608 7.65904,-0.003 9.07597,0.0798 12.48,0.72551 10.59952,2.01054 18.87917,6.26192 25.94115,13.32008 8.24506,8.24055 13.56921,19.86593 15.64877,34.16923 2.55257,17.55699 0.32153,35.50723 -6.06752,48.81728 -4.26576,8.88663 -9.65619,15.28355 -17.0841,20.27394 -6.90515,4.63919 -13.14352,6.9449 -21.96701,8.11904 -3.81964,0.50828 -13.72899,0.57911 -17.75129,0.12688 z m 16.31478,-30.04554 c 8.42179,-2.40997 14.84967,-9.22608 18.19911,-19.29832 2.02867,-6.1006 2.43388,-8.89189 2.42473,-16.70328 -0.006,-5.073 -0.15017,-7.50428 -0.58838,-9.92 -2.12643,-11.72209 -6.80896,-19.32787 -14.09418,-22.893 -3.5607,-1.74248 -5.76803,-2.26115 -10.41606,-2.44752 -5.08691,-0.20397 -7.73408,0.31954 -11.82227,2.33802 -5.03735,2.48708 -9.82103,7.77937 -12.63347,13.97664 -3.01213,6.63727 -4.36135,13.37807 -4.37002,21.83333 -0.006,5.83941 0.43258,9.69958 1.65203,14.54024 2.67779,10.62949 9.11421,17.28095 18.42784,19.04349 3.54749,0.67134 10.03942,0.44075 13.22067,-0.4696 z m -157.5058,27.96655 c -0.0926,-0.15848 -0.26646,-2.30415 -0.3864,-4.76815 -0.11995,-2.464 -0.56626,-10.888 -0.99181,-18.72 -0.42555,-7.832 -1.42793,-27.632 -2.22752,-44 -0.7996,-16.368 -1.73736,-35.22686 -2.08394,-41.90858 -0.35428,-6.83036 -0.50902,-12.2697 -0.35347,-12.42525 0.79843,-0.79843 27.35761,-2.25453 41.63416,-2.28258 11.20476,-0.022 12.27568,0.0256 16.16,0.71917 12.73555,2.27389 20.83073,7.43955 24.97392,15.93623 2.09043,4.28698 2.49933,6.50977 2.5241,13.72101 0.0208,6.04567 -0.0269,6.57488 -0.86068,9.55854 -2.30104,8.23406 -6.94081,14.97523 -13.16431,19.12656 -1.60216,1.06871 -2.96752,1.99425 -3.03412,2.05677 -0.0666,0.0625 0.88831,2.17116 2.12202,4.68589 1.23371,2.51474 3.21018,6.80424 4.39216,9.53224 5.80484,13.39754 14.88691,37.5288 14.88691,39.55484 0,0.60016 -0.38313,0.94935 -1.85908,1.69441 -3.60012,1.81733 -12.33026,4.36506 -22.39577,6.53577 -3.16191,0.6819 -3.67312,0.72129 -4.08,0.31442 -0.25583,-0.25583 -0.46515,-0.71926 -0.46515,-1.02984 0,-2.34239 -8.16265,-30.78759 -13.48415,-46.9896 -1.91643,-5.83479 -2.67568,-7.76 -3.06037,-7.76 -0.28139,0 -1.60599,0.2189 -2.94355,0.48644 -1.33756,0.26754 -3.72793,0.59169 -5.31193,0.72035 l -2.88,0.23392 0.0597,1.11965 c 0.0328,0.6158 0.28633,3.63964 0.56337,6.71964 1.21592,13.51771 3.02672,44.2234 2.66375,45.16928 -0.20987,0.54691 -2.67152,1.01127 -8.24677,1.55566 -4.66266,0.45529 -21.94202,0.80102 -22.15102,0.44321 z m 35.27102,-78.05283 c 6.87007,-1.10553 11.78657,-2.82557 14.55072,-5.09058 3.69705,-3.02946 5.00106,-10.30188 2.66216,-14.8468 -0.87162,-1.69372 -3.09299,-3.35124 -5.41566,-4.04099 -2.52209,-0.74899 -9.27213,-1.23741 -13.87722,-1.00413 -5.85329,0.2965 -10.17459,0.80463 -10.61852,1.24862 -0.27778,0.27782 -0.30189,1.05985 -0.0906,2.93856 0.15835,1.408 0.65059,6.71036 1.09386,11.78303 0.44327,5.07266 0.9015,9.37763 1.01829,9.56661 0.27297,0.44168 6.49487,0.11866 10.67696,-0.55432 z m 311.86034,77.25787 c -7.91772,-0.7501 -15.36608,-2.8941 -22.74035,-6.54578 -5.97827,-2.9604 -9.91856,-5.74605 -14.24028,-10.06741 -2.83261,-2.83237 -6.71972,-7.73545 -6.71972,-8.47605 0,-0.77571 8.77472,-8.85379 13.62228,-12.54079 2.70224,-2.05528 5.54198,-3.94316 5.93132,-3.94316 0.12557,0 1.06135,0.9 2.07949,2 8.64646,9.34161 15.20688,14.02206 22.36691,15.95741 3.44653,0.93159 9.66896,1.01585 12.48,0.16898 4.99527,-1.50489 8.32743,-5.24711 9.43872,-10.60026 1.13747,-5.47908 -1.39865,-10.35718 -7.47328,-14.37455 -3.67417,-2.42986 -7.31491,-4.17339 -15.40544,-7.37755 -7.79523,-3.08722 -19.29478,-8.55433 -22.92876,-10.90081 -5.88701,-3.80122 -10.27831,-8.3672 -12.61159,-13.11322 -2.05488,-4.17977 -2.44598,-5.93386 -2.6175,-11.73974 -0.16989,-5.7503 0.28432,-8.7925 1.88877,-12.65067 1.46108,-3.51337 3.243,-6.04142 6.49145,-9.20958 7.65043,-7.46141 18.65264,-11.49083 32.52653,-11.91246 15.16345,-0.46082 29.07414,3.43846 39.2495,11.00196 2.99533,2.22648 6.1616,5.33016 6.1616,6.0398 0,1.08545 -13.5327,16.13276 -15.41478,17.14001 -0.48483,0.25948 -1.00327,-0.0392 -2.89613,-1.66828 -5.59699,-4.81721 -13.15827,-8.70518 -19.6041,-10.08035 -2.80451,-0.59832 -7.71689,-0.66449 -10.24499,-0.13799 -6.20976,1.29324 -9.86813,5.37674 -9.34633,10.43248 0.53452,5.1788 4.93984,8.39027 17.34633,12.64541 14.03181,4.81258 23.0785,8.77144 29.28,12.81301 3.95575,2.578 8.88573,7.54202 10.94659,11.02221 3.61549,6.10547 4.89856,14.13756 3.61677,22.64131 -2.52675,16.76349 -16.30355,29.64052 -35.14649,32.85112 -4.364,0.74356 -11.7473,1.0313 -16.03652,0.62495 z m -380.71669,-0.46561 c -3.287,-0.2233 -11.063,-0.64685 -17.28,-0.94124 -24.87954,-1.17811 -39.36404,-2.01873 -39.64622,-2.30092 -0.79599,-0.79599 -1.73528,-46.99121 -1.44009,-70.82542 0.19161,-15.47148 0.62742,-32.82095 0.98173,-39.08249 0.17615,-3.11291 1.31116,-6.26063 3.79943,-10.53689 2.3219,-3.99034 12.95038,-21.50169 17.27412,-28.46061 3.22734,-5.19431 4.05626,-6.75986 3.98163,-7.52 -0.14051,-1.43124 -1.05666,-1.38162 -5.32719,0.28851 -5.2878,2.06795 -9.30642,3.39149 -10.29749,3.39149 -1.78953,0 -2.0999,-0.94529 -2.52156,-7.68 -0.15979,-2.552 -0.39086,-4.892 -0.5135,-5.2 -0.32583,-0.81831 -1.10256,-0.71504 -6.73976,0.89611 -9.06264,2.59015 -14.57625,5.22173 -18.55037,8.85385 -3.93808,3.59918 -4.237432,6.97013 -1.02064,11.49332 0.79665,1.12019 1.67972,2.5943 1.96236,3.27579 0.70712,1.70495 0.65647,3.96319 -0.11736,5.23234 -0.9316,1.52789 -1.89784,1.62507 -4.45207,0.44775 -2.491543,-1.14843 -2.69217,-1.17794 -3.373805,-0.49631 -0.380352,0.38036 -0.508176,1.2184 -0.524688,3.44 -0.02822,3.79834 -0.795962,6.81793 -1.950314,7.67087 -1.132342,0.83668 -2.378426,0.51983 -3.089331,-0.78554 -0.87256,-1.60219 -1.995021,-2.82818 -2.589363,-2.82818 -0.304672,0 -1.136227,0.648 -1.847904,1.44 -1.476659,1.64332 -2.481901,1.83964 -4.164995,0.81339 -0.736359,-0.44898 -1.126912,-1.01007 -1.391287,-1.9988 -0.469888,-1.75732 -0.793984,-2.13262 -2.457452,-2.84566 -1.658451,-0.7109 -2.647367,-2.19801 -2.639299,-3.96893 0.0096,-2.11705 0.991347,-3.76883 3.334195,-5.61 2.456665,-1.93062 3.020966,-2.70045 6.549945,-8.93557 1.439901,-2.54407 3.098611,-5.20807 3.686029,-5.92 1.677094,-2.03261 4.003091,-3.21727 8.821606,-4.49297 5.247653,-1.38932 6.409563,-1.81921 11.520003,-4.26226 4.88508,-2.33532 9.41166,-4.04198 13.4305,-5.0637 1.66677,-0.42375 9.76975,-2.05572 18.00661,-3.62661 16.16283,-3.08247 17.32032,-3.42694 19.02492,-5.66179 0.72716,-0.95335 2.01796,-3.88065 2.01796,-4.57634 0,-0.16631 -1.332,-1.369281 -2.96,-2.673265 -8.86829,-7.103273 -15.4793,-16.799228 -17.97775,-26.366876 -0.68105,-2.608006 -0.1201,-3.354358 1.88989,-2.514531 1.24995,0.522262 1.54888,1.002876 2.45068,3.940163 0.95529,3.111491 2.85272,6.944307 5.13763,10.378038 2.33162,3.503936 10.19038,11.582672 13.28879,13.660764 2.96582,1.989165 8.16912,4.431647 9.96789,4.679047 3.00988,0.41396 6.86152,-1.06869 8.84384,-3.404362 1.09634,-1.291773 3.73003,-6.792316 4.41925,-9.22974 1.62374,-5.742403 2.04627,-10.738915 1.33725,-15.813158 -0.80966,-5.794426 -0.22853,-7.667139 1.76163,-5.676976 1.45637,1.456371 1.74222,3.056924 1.75205,9.810134 0.0104,7.176153 -0.34017,9.202726 -2.6832,15.508636 -1.87067,5.034624 -3.17124,7.097536 -5.55517,8.811366 -2.12732,1.52933 -2.76212,2.46579 -2.16183,3.18909 0.60151,0.72477 1.39527,0.60938 3.95003,-0.57421 6.23087,-2.88669 13.915,-8.398508 19.43635,-13.941676 6.08485,-6.108896 9.0326,-10.331603 12.92113,-18.50976 2.49483,-5.247001 2.51461,-5.472649 0.87686,-10.003446 -1.12805,-3.120748 -1.64944,-5.961673 -1.6529,-9.006291 -0.003,-2.727932 -0.92502,-5.701516 -2.54452,-8.207199 -1.91679,-2.965652 -2.30437,-3.844471 -2.36294,-5.357888 -0.0372,-0.962173 0.14777,-1.653219 0.60742,-2.268874 1.05693,-1.415638 1.92343,-1.451949 5.62257,-0.235603 3.69897,1.216288 4.85836,1.20839 6.03219,-0.04109 0.60313,-0.642003 0.78413,-1.304919 0.9816,-3.595101 0.13332,-1.546179 0.57919,-3.742614 0.99225,-4.887952 0.68642,-1.903345 0.83484,-2.08825 1.74755,-2.177141 0.91113,-0.08874 1.30512,0.242182 4.55394,3.824947 2.30862,2.545929 3.96964,4.713327 4.73396,6.177141 0.6476,1.240279 1.31285,2.344682 1.47834,2.454231 0.16549,0.109545 1.23258,-0.286455 2.37131,-0.88 3.33542,-1.738541 5.40477,-1.327821 5.34215,1.060304 -0.0432,1.649036 -1.00404,3.448687 -3.15488,5.909331 -2.35558,2.694867 -4.34396,6.648959 -5.60757,11.151186 -1.41422,5.038861 -2.3992,7.720704 -3.91081,10.648167 -2.00569,3.884291 -3.10228,4.385747 -6.80498,3.111833 -2.13316,-0.733913 -3.46051,-0.815097 -3.92403,-0.24 -0.17731,0.22 -2.01092,3.764186 -4.07467,7.875971 -4.59256,9.150125 -7.17126,13.070259 -11.71851,17.814419 -2.76081,2.880377 -3.48279,3.822115 -3.48279,4.542931 0,0.50012 0.74783,2.41622 1.66184,4.258 1.32048,2.66081 1.68915,3.75141 1.79477,5.30927 0.12809,1.88925 0.0899,2.00821 -1.04928,3.26916 -1.59022,1.76019 -4.36613,3.54126 -11.04733,7.08816 -3.08,1.63511 -6.15856,3.32682 -6.84125,3.75935 l -1.24126,0.78642 0.1855,1.96816 c 0.10202,1.08249 0.51209,4.20016 0.91127,6.92816 0.65946,4.50682 0.72668,6.15009 0.73576,17.98555 l 0.01,13.02556 1.28,0.0944 1.28,0.0944 v 5.6 c 0,5.64071 -0.71281,17.26114 -1.09694,17.88268 -0.1217,0.19691 -8.15383,0.98531 -19.50772,1.91478 -10.61547,0.86902 -19.44875,1.72795 -19.62952,1.90872 -0.20723,0.20723 -0.34293,3.61833 -0.36725,9.23124 l -0.0386,8.90257 11.99999,-0.16 c 6.6,-0.088 14.304,-0.16 17.12,-0.16 h 5.12 l -0.11834,12.32 c -0.0651,6.776 -0.21843,12.43015 -0.34076,12.56477 -0.12233,0.13461 -3.45307,0.10135 -7.40166,-0.0739 -3.94858,-0.17528 -11.60292,-0.41644 -17.00965,-0.53591 -9.48462,-0.20959 -9.83906,-0.19573 -10.07613,0.39392 -0.13513,0.33613 -0.24745,5.43514 -0.24958,11.33114 l -0.004,10.72 16.48,0.19245 c 15.06667,0.17595 22.00481,0.40625 23.92,0.79398 0.67911,0.13749 0.72,0.30103 0.72,2.87983 0,6.60434 -2.09856,26.23216 -2.9091,27.2088 -0.42019,0.5063 -0.52365,0.50574 -8.66726,-0.0475 z M 131.15647,169.77503 c 16.46108,-2.7589 34.43713,-4.64803 49.88605,-5.2426 4.03772,-0.15539 6.61787,-0.38483 6.84141,-0.60837 0.53479,-0.53479 0.14587,-17.49307 -0.50711,-22.11185 -0.28208,-1.99529 -1.0771,-6.38729 -1.7667,-9.76 -0.68961,-3.37272 -1.68727,-8.36421 -2.21702,-11.09221 -1.08651,-5.59505 -4.19068,-15.60902 -5.09116,-16.42394 -0.42165,-0.38159 -1.18446,-0.53879 -2.64714,-0.54552 -1.51184,-0.007 -3.06708,-0.34264 -5.88568,-1.27036 -3.44277,-1.13317 -3.90117,-1.21485 -4.52474,-0.80627 -0.39801,0.26078 -2.63742,4.24784 -5.25183,9.35037 -5.19964,10.14809 -9.21516,17.54994 -11.49046,21.18047 -0.8625,1.37621 -2.14056,3.63914 -2.84013,5.02873 -0.69957,1.38958 -1.963,3.46252 -2.80761,4.60652 -4.2739,5.78886 -17.41435,27.01658 -17.41435,28.13199 0,0.4837 0.41054,0.45232 5.71647,-0.43696 z M 87.655136,152.00744 c 1.050391,-2.6344 1.873812,-3.04043 4.035799,-1.99006 0.795401,0.38644 1.512521,0.70262 1.5936,0.70262 0.237644,0 2.282579,-4.23586 2.520572,-5.22109 0.25032,-1.03625 1.758669,-1.81891 3.505431,-1.81891 1.875922,0 2.007222,-0.57721 0.815952,-3.58691 -0.965789,-2.44003 -1.052074,-2.9517 -1.074429,-6.37129 -0.03373,-5.15961 -0.401242,-5.52997 -3.727942,-3.75686 -3.328506,1.77407 -4.741891,3.79278 -7.664115,10.94648 -1.370074,3.35399 -2.598144,4.86396 -5.100007,6.27072 -1.929651,1.08501 -2.08,1.24905 -2.08,2.26932 0,0.85233 0.143997,1.1228 0.64,1.2021 1.499274,0.23973 2.491392,0.88396 3.404004,2.21039 1.376502,2.00068 2.067251,1.81172 3.131135,-0.85651 z m 50.940594,-26.53116 c 2.74848,-1.24193 6.65446,-2.43825 9.51124,-2.9131 2.97152,-0.49392 3.94391,-1.30525 6.3037,-5.25963 1.85817,-3.11382 2.0326,-3.71009 1.27034,-4.34271 -0.38618,-0.3205 -1.26969,-0.23459 -4.56,0.4434 -2.24456,0.46251 -6.80147,1.33336 -10.12648,1.93524 -3.95798,0.71644 -6.22313,1.2732 -6.56,1.6124 -0.42437,0.4273 -0.49878,1.16126 -0.42466,4.18825 0.0494,2.01859 0.22587,4.02785 0.39208,4.46502 0.41041,1.07945 1.60061,1.04288 4.19378,-0.12887 z m 53.0579,-8.03836 c 3.18933,-1.63825 10.49167,-6.25107 11.78636,-7.44533 0.89008,-0.82104 0.90798,-1.82603 0.0756,-4.24538 -0.88227,-2.56439 -1.44798,-3.34721 -2.41886,-3.34721 -0.98533,0 -1.56084,0.29292 -7.12151,3.62466 -2.58797,1.55061 -5.23975,2.87931 -6.46213,3.23789 -3.57586,1.04899 -3.75449,1.50075 -2.23728,5.65801 1.17269,3.21326 1.74439,4.11944 2.59892,4.11944 0.36299,0 2.06349,-0.72094 3.7789,-1.60208 z m 39.36586,-54.706952 c 0.31759,-0.169965 1.24062,-1.285965 2.05119,-2.48 1.20108,-1.769277 1.94888,-3.587389 4.04154,-9.826077 1.41227,-4.210307 2.56777,-7.958268 2.56777,-8.328796 0,-0.370531 -0.23478,-1.00889 -0.52174,-1.418579 -0.491,-0.701008 -0.65662,-0.732247 -2.8115,-0.530317 -2.91131,0.27281 -3.03768,0.14272 -4.32914,-4.456579 -0.54134,-1.927891 -1.11015,-3.631158 -1.26403,-3.785033 -0.15388,-0.153876 -0.62038,-0.231582 -1.03668,-0.172681 -0.71099,0.100597 -0.77852,0.303874 -1.11321,3.351218 -0.48423,4.4088 -0.62485,4.840598 -1.81229,5.564604 -1.32959,0.810685 -1.70277,0.794461 -3.88071,-0.168729 -2.17215,-0.960627 -2.62718,-0.988723 -3.05536,-0.188662 -0.23429,0.437785 -0.1965,0.981689 0.13312,1.915939 0.25316,0.717529 0.97002,4.34272 1.59302,8.055974 1.16974,6.9719 1.8199,9.061628 3.31568,10.6571 1.61732,1.725114 4.62183,2.613667 6.12234,1.810618 z M 493.70363,287.18757 c -3.28701,-0.2233 -11.06301,-0.64685 -17.28,-0.94124 -24.89072,-1.17864 -39.36409,-2.01879 -39.64672,-2.30142 -0.44748,-0.44748 -0.87939,-12.83942 -1.29452,-37.14059 -0.37405,-21.89743 -0.0704,-52.93101 0.67401,-68.88432 0.28474,-6.10207 0.30877,-6.25415 1.08739,-6.88 0.62759,-0.50447 1.63847,-3.07972 4.77335,-12.16 4.79472,-13.88823 5.75235,-16.97388 5.50736,-17.74579 -0.32167,-1.01347 -1.67783,-2.12495 -4.73363,-3.87957 -5.54612,-3.18451 -11.88804,-7.0695 -13.07485,-8.00947 -0.65213,-0.51648 -1.49197,-1.57183 -1.86637,-2.34523 -0.61738,-1.27528 -0.63917,-1.50563 -0.23421,-2.47482 0.24557,-0.58777 1.47658,-2.3458 2.73552,-3.90675 2.28429,-2.8322 2.652,-3.75912 1.88903,-4.76162 -0.77261,-1.01514 -17.61274,-11.74515 -18.77578,-11.96334 -0.70525,-0.13231 -1.93913,-0.0103 -3.22342,0.3188 -2.89517,0.74183 -4.18666,0.66765 -6.65834,-0.38243 -4.81632,-2.04619 -9.06121,-2.29963 -14.88806,-0.88886 -5.90477,1.42963 -9.63248,0.92606 -12.13181,-1.63887 -3.12166,-3.203534 -2.51075,-6.516245 1.72237,-9.339627 3.19942,-2.133942 3.23597,-1.982541 -1.24877,-5.174451 -3.64538,-2.594499 -4.80173,-3.700413 -5.0497,-4.829421 -0.26956,-1.227385 0.45959,-2.299427 2.17818,-3.202492 1.17718,-0.61857 1.78797,-0.703792 4.64701,-0.64842 3.99657,0.0774 4.05414,0.0081 2.84035,-3.422134 -0.91648,-2.589933 -1.07027,-4.316393 -0.49667,-5.575292 1.12211,-2.462794 4.66419,-1.783082 10.5575,2.025932 1.09248,0.706119 2.30173,1.283853 2.68714,1.283853 0.91856,0 1.76,-0.958262 1.76,-2.004365 0,-1.478998 0.59094,-2.487788 1.73808,-2.967094 3.10646,-1.297965 5.07638,0.95568 6.72317,7.691459 1.12438,4.599078 1.58953,5.577245 4.1215,8.666921 1.54829,1.88929 2.71446,3.830963 4.32435,7.2 1.21238,2.537194 2.79754,5.350224 3.5225,6.251184 0.72496,0.900957 4.09289,3.793347 7.48425,6.427527 18.05383,14.02297 26.90202,20.76525 27.60067,21.03161 1.05805,0.40336 2.3272,-0.2107 2.75575,-1.33331 0.56374,-1.47677 2.62285,-9.44245 2.77625,-10.73991 0.10439,-0.8831 -0.0192,-1.39758 -0.45139,-1.87937 -0.32733,-0.36487 -2.89913,-1.773 -5.71513,-3.12918 -12.26119,-5.90499 -18.32378,-11.397751 -27.18973,-24.634112 -4.29591,-6.413549 -5.27991,-8.284813 -6.10983,-11.619043 -0.49734,-1.998013 -0.49843,-2.216678 -0.0147,-2.954918 0.67636,-1.03225 1.90269,-1.339645 2.85501,-0.715648 0.55834,0.36582 0.86771,1.089222 1.28099,2.995276 0.69754,3.217034 1.72346,5.208067 5.47031,10.616323 3.8607,5.572566 7.49248,9.695661 11.54797,13.110195 5.86192,4.935446 14.92726,10.562257 19.36,12.016657 2.5246,0.82833 9.25206,1.8098 12.40518,1.8098 6.75382,0 14.6255,-4.9558 19.61401,-12.348444 3.83092,-5.6772 4.54506,-8.29647 3.66378,-13.438009 -0.65949,-3.847511 -0.4921,-5.343146 0.68429,-6.113949 1.19958,-0.786 1.77363,-0.245245 2.47337,2.32991 0.42903,1.578858 0.60685,3.353463 0.62237,6.21049 0.0198,3.67416 -0.0611,4.247638 -0.99488,7.04 -1.60064,4.786393 -3.56781,7.958425 -7.26813,11.719622 -5.32928,5.41697 -9.96902,7.94401 -16.65068,9.06882 -4.87165,0.82011 -5.37664,1.24799 -3.92083,3.32216 1.41436,2.01519 4.81532,5.99172 5.38531,6.29677 1.08438,0.58035 2.76019,0.31909 11.22643,-1.75024 4.64189,-1.13457 10.664,-2.50782 13.38249,-3.05165 11.60413,-2.32141 28.45258,-4.77737 37.18855,-5.42089 2.5294,-0.18632 4.41814,-0.48815 5.02793,-0.8035 0.53722,-0.27779 1.78765,-1.52143 2.77879,-2.76365 2.79654,-3.50492 10.188,-9.279679 13.53836,-10.577151 0.992,-0.384164 2.66765,-0.76232 3.72365,-0.840346 1.61171,-0.119085 2.05952,-0.03178 2.78899,0.543651 0.95533,0.753639 1.57412,2.473516 1.29834,3.608656 -0.0973,0.40026 -1.01424,1.8487 -2.03779,3.21875 -1.02381,1.37038 -1.78375,2.69232 -1.68928,2.9385 0.0944,0.24612 1.84905,0.97577 3.8991,1.62143 8.83575,2.78281 12.39047,5.78993 12.15735,10.2846 -0.0945,1.82247 -0.12554,1.87881 -1.37671,2.50145 -1.84678,0.91905 -5.52041,0.88585 -7.72262,-0.0698 -2.11971,-0.91986 -5.07245,-1.3014 -5.30496,-0.6855 -0.091,0.24107 0.10861,1.73431 0.44361,3.31831 1.12132,5.30204 1.23946,6.56185 0.71111,7.58354 -0.67783,1.31079 -2.25178,2.17384 -3.96704,2.17526 -1.38707,0.001 -1.52803,-0.0928 -3.8401,-2.5588 -3.11971,-3.32748 -3.34569,-3.33496 -6.67545,-0.22101 -3.94541,3.68969 -5.80132,4.24717 -7.92679,2.38101 -2.20173,-1.93313 -2.42595,-2.9286 -2.31267,-10.26776 0.0548,-3.54873 -0.0147,-6.77591 -0.15408,-7.1715 -0.51683,-1.4655 -3.07184,-1.31113 -12.05101,0.72806 -2.728,0.61954 -9.208,2.00021 -14.4,3.06816 -5.192,1.06795 -9.764,2.14784 -10.16,2.39976 -0.43696,0.27798 -0.72,0.77702 -0.72,1.26951 0,0.44632 0.72714,3.215 1.61588,6.15263 1.74086,5.75429 1.82784,7.04855 0.52918,7.87425 -1.00845,0.64117 -3.48538,1.06664 -9.44963,1.62317 -2.87354,0.26813 -5.49824,0.63396 -5.83267,0.81295 -0.82701,0.44259 -1.30653,1.42105 -1.04269,2.12759 0.11977,0.32074 1.78653,2.74318 3.7039,5.38318 3.47235,4.781 4.35415,6.11245 8.47706,12.8 l 2.17014,3.52 1.7544,0.16 1.75443,0.16 0.10477,3.84 c 0.10439,3.82515 -0.8327,19.04562 -1.21017,19.65639 -0.11056,0.17889 -8.74372,1.02058 -19.49927,1.90107 -10.61545,0.86902 -19.44873,1.72795 -19.6295,1.90872 -0.20723,0.20723 -0.34294,3.61833 -0.36726,9.23124 l -0.0386,8.90257 11.99999,-0.16 c 6.6,-0.088 14.304,-0.16 17.12,-0.16 h 5.12 l -0.11833,12.32 c -0.0651,6.776 -0.21843,12.43015 -0.34077,12.56477 -0.12234,0.13461 -3.45309,0.10135 -7.40166,-0.0739 -3.94858,-0.17528 -11.60292,-0.41644 -17.00967,-0.53591 -9.4846,-0.20959 -9.83904,-0.19573 -10.07609,0.39392 -0.13514,0.33613 -0.24746,5.43514 -0.2496,11.33114 l -0.004,10.72 16.48,0.19245 c 15.06665,0.17595 22.0048,0.40625 23.92,0.79398 0.6791,0.13749 0.72,0.30103 0.72,2.87983 0,6.60434 -2.09856,26.23216 -2.90909,27.2088 -0.42019,0.5063 -0.52365,0.50574 -8.66727,-0.0475 z M 450.71999,168.77709 c 13.432,-2.09929 36.45583,-4.29709 45.01564,-4.29709 1.35661,0 2.55763,-0.14731 2.6689,-0.32735 0.2847,-0.46068 -1.92682,-4.18549 -5.60045,-9.43265 -1.72509,-2.464 -4.00426,-5.87433 -5.06486,-7.57851 -2.70336,-4.34382 -13.1585,-18.43195 -19.19239,-25.86149 -4.74988,-5.84849 -6.57433,-7.68 -7.65049,-7.68 -0.68663,0 -1.24074,1.65955 -2.48333,7.43732 -2.08202,9.68121 -4.39427,17.05353 -7.45286,23.76268 -0.8826,1.936 -2.49076,5.45934 -3.57367,7.82964 -3.92688,8.59526 -6.96902,16.67143 -6.5408,17.36432 0.11315,0.18308 0.74736,0.22462 1.5145,0.0992 0.72589,-0.11868 4.48781,-0.71091 8.35981,-1.31606 z m -0.8385,-32.73858 c 0.85968,-0.8597 1.69418,-3.60786 1.57782,-5.1961 -0.0993,-1.35598 -0.0994,-1.35608 -6.46931,-6.26566 -3.50349,-2.70031 -6.73568,-5.00143 -7.18262,-5.11361 -0.68448,-0.17179 -1.03805,0.0437 -2.24199,1.36645 -1.70854,1.87719 -3.2454,4.21522 -3.2454,4.93728 0,0.8007 1.01785,1.57315 6.56,4.97843 11.03177,6.77827 10.00867,6.28603 11.0015,5.29321 z m 47.98339,-0.45634 c 1.92454,-0.63053 2.11261,-1.42547 1.51322,-6.39564 -0.56551,-4.68908 -1.03914,-5.76313 -2.60976,-5.91818 -0.5106,-0.0504 -4.72228,0.40786 -9.35927,1.01837 -6.39449,0.84191 -8.57801,1.24316 -9.04,1.66124 -0.91421,0.82735 -0.78675,2.4621 0.29015,3.7209 0.49456,0.57813 1.20272,1.57929 1.57366,2.22481 0.69123,1.20285 1.05354,1.66918 2.70387,3.48003 l 0.94909,1.04139 6.4063,-0.22538 c 3.52346,-0.12396 6.9312,-0.39735 7.57274,-0.60754 z m 48.97238,-8.35418 c 0.50295,-1.0714 1.11344,-2.50519 1.35667,-3.1862 0.57216,-1.60192 1.66026,-2.44179 3.16349,-2.44179 1.10112,0 1.38151,0.21855 3.71111,2.89254 2.30288,2.64334 3.64918,3.61638 4.21744,3.04813 0.24124,-0.24125 -0.031,-0.98918 -2.6545,-7.28798 -1.8528,-4.44863 -2.04909,-5.70722 -0.95562,-6.12683 0.26477,-0.1016 3.18202,0.55015 6.48276,1.44834 3.30076,0.8982 6.36137,1.69456 6.80137,1.7697 1.00736,0.17203 2.09338,-0.59051 1.82755,-1.28322 -0.364,-0.94859 -3.25145,-2.77656 -5.47689,-3.46728 -2.00554,-0.62246 -2.65507,-0.66666 -7.04,-0.47911 -5.70723,0.24412 -6.44653,0.0447 -6.40426,-1.7274 0.0144,-0.60879 0.29565,-1.78574 0.62477,-2.61545 0.32912,-0.8297 0.49251,-1.61442 0.36314,-1.74382 -0.32292,-0.32289 -6.73524,6.10373 -7.91524,7.93287 -1.0838,1.68003 -1.776,4.93992 -2.10579,9.91714 -0.22825,3.44469 -0.0635,4.49212 0.85015,5.40579 0.98633,0.98633 2.052,0.29181 3.15385,-2.05543 z M 408.45199,99.960032 c 3.80982,-1.298134 3.40739,-4.986332 -1.10144,-10.094758 -2.22199,-2.517465 -3.55191,-4.39055 -5.22419,-7.357814 -0.69095,-1.225987 -1.11309,-1.587027 -2.36378,-2.021609 -2.65392,-0.92218 -3.99962,-1.727767 -7.28259,-4.359648 -4.41095,-3.536128 -5.78384,-4.216643 -6.68627,-3.314211 -0.60096,0.600937 -0.67127,2.13255 -0.14365,3.129043 0.20352,0.384429 1.28857,1.773987 2.4112,3.087904 2.19174,2.565203 2.5968,3.468547 2.13897,4.770297 -0.55158,1.568445 -1.55328,1.554714 -5.63219,-0.07721 -3.99366,-1.59783 -4.75507,-1.740633 -5.36461,-1.006182 -0.70342,0.847571 -0.1039,1.876013 1.65594,2.840758 3.23485,1.773312 7.8991,4.962595 8.41971,5.757136 1.02512,1.564515 -0.31865,2.387763 -4.7991,2.940144 -3.88666,0.479174 -6.08509,1.841818 -5.30951,3.291002 0.79402,1.483609 5.5138,2.02984 10.26951,1.188505 5.30672,-0.938809 8.54115,-1.004262 11.07638,-0.224141 1.212,0.372944 2.63562,0.967981 3.16362,1.322307 1.16371,0.780915 2.73318,0.823175 4.772,0.12848 z M 74.453332,286.18666 c -0.117334,-0.11733 -0.215539,-10.59333 -0.218234,-23.28 -0.0026,-12.68667 -0.124608,-23.25542 -0.270918,-23.48613 -0.216275,-0.34104 -2.354438,-0.37095 -11.435097,-0.16 l -11.169085,0.25946 0.09814,3.68 c 0.05398,2.024 0.435955,12.104 0.848839,22.4 0.412883,10.296 0.632614,18.84491 0.488291,18.99757 -0.144323,0.15266 -1.441725,0.39645 -2.883114,0.54176 -3.861696,0.3893 -20.203619,1.01024 -23.345578,0.88706 l -2.713421,-0.10639 -0.22674,-1.44 c -0.939762,-5.96832 -2.465783,-37.31383 -3.170293,-65.12 -0.437019,-17.24862 -0.297822,-50.20689 0.214207,-50.71857 0.192765,-0.19263 2.567511,-0.4888 5.28,-0.65849 6.389807,-0.39976 23.098856,-0.92227 23.409668,-0.73205 0.132,0.0808 0.24,8.17939 0.24,17.99689 0,17.96915 0.227783,28.16524 0.644269,28.83913 0.167338,0.27076 1.162429,0.27608 3.87049,0.0207 2.004883,-0.18907 7.312719,-0.49611 11.795196,-0.68231 4.482474,-0.18619 8.210499,-0.39908 8.284499,-0.47308 0.074,-0.074 0.327754,-7.59052 0.563901,-16.70337 0.517126,-19.95582 0.906761,-29.46046 1.220601,-29.77492 0.1284,-0.12865 4.495754,-0.27618 9.705232,-0.32783 9.856377,-0.0977 19.119535,0.28964 19.651695,0.82179 0.19826,0.19827 0.12935,2.41283 -0.19263,6.19041 -1.38494,16.24869 -2.98769,53.89657 -3.71065,87.16171 -0.18361,8.448 -0.41604,17.55229 -0.51652,20.23175 l -0.18269,4.87174 -1.0067,0.16987 c -0.954365,0.16104 -19.47127,0.80152 -23.273359,0.805 -0.982669,9.6e-4 -1.882669,-0.0944 -1.999999,-0.2117 z M 461.91999,103.21708 c -7.76544,-1.80295 -15.2033,-7.546151 -21.84999,-16.871722 -2.1088,-2.958711 -2.98265,-4.554618 -4.27881,-7.814384 -1.781,-4.47897 -1.77962,-5.014294 0.0134,-5.192163 0.88457,-0.08775 1.3264,0.192377 3.32774,2.109837 3.66694,3.513254 7.05114,5.496777 12.64934,7.413958 6.86871,2.352272 14.61191,3.111414 20.10868,1.971456 3.87503,-0.803639 5.16867,-0.841213 6.11606,-0.177655 0.99843,0.699351 1.30809,1.403251 1.63571,3.718291 0.90938,6.426243 -3.0065,12.329672 -9.52413,14.358182 -2.65456,0.82619 -5.89942,1.01784 -8.19792,0.4842 z m 7.36,-4.451031 c 3.62073,-0.964823 4.58188,-1.93962 5.81632,-5.898896 0.97507,-3.127405 0.83231,-3.693296 -0.9704,-3.846573 -0.64311,-0.05468 -3.14455,0.216522 -5.55876,0.602666 -5.93254,0.948889 -11.3872,0.764588 -15.60716,-0.527328 -1.584,-0.484935 -3.312,-0.893898 -3.84,-0.90881 -0.81572,-0.02304 -0.96,0.09209 -0.96,0.765901 0,0.626035 0.94329,1.589885 4.48,4.577568 4.46748,3.774 6.18182,4.924566 8,5.369161 1.62803,0.398099 6.95356,0.315693 8.64,-0.133689 z M 108.49125,96.341034 c -0.92181,-1.722432 0.004,-3.664515 2.339,-4.905862 1.15135,-0.612125 1.87472,-0.713632 5.39197,-0.756624 4.77519,-0.05837 5.44278,-0.359568 6.79024,-3.063565 0.80174,-1.608873 1.0848,-3.134985 0.58148,-3.134985 -0.13534,0 -1.29218,0.439532 -2.57077,0.976739 -1.91544,0.804781 -2.81577,0.987878 -5.11394,1.04 -2.78824,0.06324 -2.79014,0.06386 -5.33442,1.743261 -2.84711,1.879296 -3.84502,2.082771 -4.38647,0.894419 -0.75935,-1.666608 1.39464,-4.29808 4.81325,-5.880214 1.46478,-0.677898 2.45141,-0.865943 5.31841,-1.013652 4.07354,-0.209875 4.65473,-0.479785 6.45344,-2.997056 1.73133,-2.422975 3.35444,-4.043497 4.04996,-4.043497 0.55317,0 0.59688,0.180986 0.44436,1.84 -0.093,1.012 -0.27423,2.175805 -0.40265,2.586233 -0.22697,0.725421 -0.19311,0.74018 1.21411,0.529152 1.59116,-0.238608 2.80078,0.193799 2.80078,1.001207 0,0.659216 -3.699,8.262499 -4.8131,9.893324 -2.19584,3.214263 -5.30824,5.154512 -7.76321,4.839536 -4.93142,-0.63271 -4.7855,-0.638099 -6.43223,0.237482 -1.86376,0.990966 -2.92835,1.0584 -3.38021,0.214102 z m 59.69896,-4.333568 c -1.74339,-0.786188 -3.73095,-1.818316 -4.4168,-2.293616 -2.4917,-1.726742 -4.32203,-4.860367 -4.64034,-7.944499 -0.15693,-1.520544 -0.10058,-1.742822 0.52706,-2.078723 0.95932,-0.513414 1.87172,0.120099 3.79221,2.633091 3.55111,4.646685 5.32006,6.042983 8.45286,6.672138 2.4452,0.491065 4.90373,-0.228461 6.82185,-1.996525 1.59237,-1.467795 2.18603,-2.958845 2.69647,-6.772553 0.41278,-3.083962 1.06057,-4.465642 2.02851,-4.326618 1.12854,0.162093 1.35538,1.442944 0.96153,5.42928 -0.30656,3.102858 -0.50767,3.870041 -1.55578,5.934989 -2.15788,4.251353 -5.13915,6.177542 -9.55587,6.174019 -1.61104,-0.0013 -2.482,-0.245104 -5.1117,-1.430983 z M 106.79911,80.32506 c -0.44395,-0.349219 -0.90195,-1.012467 -1.01775,-1.473885 -0.34012,-1.35511 0.45799,-2.1771 2.72609,-2.807689 1.10742,-0.307888 2.88627,-1.046765 3.95302,-1.641946 1.17887,-0.657747 2.62977,-1.169689 3.69953,-1.305363 3.33932,-0.42351 4.20691,-1.245971 6.22496,-5.901107 1.87651,-4.32864 2.32915,-4.9288 3.81232,-5.054716 1.35128,-0.11472 1.93178,-0.823792 2.27622,-2.780356 0.44639,-2.535699 1.78614,-4.614841 4.71303,-7.314083 1.5377,-1.418102 2.86851,-2.767785 2.95734,-2.999296 0.0889,-0.231513 -0.36094,-0.999248 -0.99952,-1.706076 -0.81595,-0.903162 -1.153,-1.56825 -1.13397,-2.237632 0.0505,-1.777696 1.58684,-4.450154 4.01136,-6.977952 1.28978,-1.34473 3.21756,-3.528874 4.28395,-4.853658 2.25491,-2.801297 3.59024,-4.056911 6.59352,-6.199913 2.14542,-1.530877 2.20706,-1.551715 3.97534,-1.343889 0.98787,0.116105 3.19321,0.03674 4.90074,-0.176357 2.69729,-0.336621 3.42596,-0.316849 5.55376,0.1507 1.6112,0.354036 3.90104,0.538157 6.69281,0.538157 5.06146,0 6.92348,0.407205 10.99562,2.404635 4.63185,2.271966 6.49563,4.533829 6.50073,7.889192 0.003,1.726605 -0.26844,2.186173 -1.28945,2.186173 -0.736,0 -1.50714,-0.646794 -4.17457,-3.501392 -1.79949,-1.925766 -3.6868,-3.673289 -4.19401,-3.883384 -0.71708,-0.297022 -1.43581,-0.294536 -3.2312,0.01117 -2.20874,0.376093 -2.49655,0.347509 -6.62899,-0.658364 -3.69403,-0.899162 -4.8996,-1.052306 -8.32,-1.056899 -6.86435,-0.0092 -12.52676,1.830531 -9.35999,3.04111 0.62356,0.238378 1.95234,0.22585 4.56,-0.04298 5.84225,-0.602304 9.13917,0.307674 11.33742,3.129229 1.34977,1.73248 1.69479,2.776128 1.13913,3.445667 -0.83185,1.00231 -2.03199,0.625853 -7.50422,-2.353888 -1.49005,-0.81137 -2.99376,-0.872637 -5.16148,-0.210304 -1.01061,0.308787 -2.77533,0.469088 -4.94805,0.449465 -4.52455,-0.04086 -6.62457,0.842874 -8.65126,3.640634 -1.4129,1.950448 -1.29031,2.149936 1.3212,2.149936 2.71524,0 4.66082,0.824822 4.98413,2.113005 0.31479,1.25422 -0.64956,1.975737 -3.40878,2.5504 -2.61328,0.544272 -3.37962,1.075113 -4.62846,3.206089 -0.43462,0.741613 -1.88544,2.357578 -3.22406,3.59103 -2.32155,2.13916 -3.97557,4.572689 -3.97557,5.849156 0,0.941133 -1.55256,2.49242 -2.71219,2.709968 -1.50851,0.282999 -2.28228,1.275594 -2.72866,3.500352 -0.76782,3.826813 -4.29857,9.31609 -6.61463,10.283802 -0.57418,0.23991 -1.84522,0.436198 -2.82452,0.436198 -2.22614,0 -3.38513,0.493961 -5.54613,2.363769 -1.96066,1.696458 -3.51147,1.960848 -4.93476,0.841293 z m 48.91649,-7.678249 c -1.8699,-0.739479 -3.00194,-1.720355 -3.59685,-3.116534 -0.59208,-1.389559 -0.55367,-1.89536 0.20125,-2.650279 0.87015,-0.870157 1.38724,-0.807248 2.67769,0.325779 2.50563,2.199978 3.82247,1.947616 5.77651,-1.107033 1.6194,-2.531543 3.15186,-3.188426 3.49032,-1.496119 0.30667,1.533367 -0.35303,3.103853 -2.46876,5.877072 -1.87172,2.453395 -2.10285,2.64545 -3.26504,2.713037 -0.6879,0.04001 -1.9547,-0.205661 -2.81512,-0.545923 z m 340.03558,-2.424957 c -0.39116,-0.273981 -0.7112,-0.785133 -0.7112,-1.135891 0,-1.58 0.92877,-2.415411 6.13751,-5.52063 2.87238,-1.712375 6.80649,-4.272026 8.74249,-5.688115 3.73495,-2.731936 4.71213,-3.255575 6.65732,-3.567434 1.57072,-0.251827 2.57401,0.600007 2.27916,1.935088 -1.11516,5.049443 -1.65696,5.469491 -13.09648,10.154144 -1.584,0.648669 -4.24115,1.886256 -5.90476,2.750192 -1.66362,0.863933 -3.10756,1.57079 -3.2088,1.57079 -0.10122,0 -0.50407,-0.224166 -0.89524,-0.498144 z m -50.79119,-1.80351 c -4.50026,-1.928138 -6.02797,-2.088368 -8.87892,-0.931258 -2.1607,0.876967 -2.80108,0.740679 -2.80108,-0.596121 0,-1.324397 1.79571,-3.251815 3.92268,-4.210381 1.40141,-0.63159 2.20365,-0.75631 4.87732,-0.758256 2.73718,-0.0019 3.40128,0.105091 4.5918,0.740403 3.25175,1.73528 5.6537,4.977178 4.90503,6.620317 -0.5697,1.250364 -2.16768,1.041539 -6.61683,-0.864704 z m 29.47296,0.975734 c -1.46896,-0.774669 -3.18973,-0.857149 -7.87296,-0.37736 -3.8322,0.392599 -4.8,0.191447 -4.8,-0.997664 0,-1.021651 1.64771,-2.899021 3.32969,-3.793821 1.72125,-0.915676 6.47354,-0.98888 9.21107,-0.141888 3.56205,1.102109 5.20797,3.798077 3.25607,5.333428 -1.03981,0.817929 -1.53668,0.814319 -3.12387,-0.02269 z M 175.74937,66.380574 c -1.42651,-0.999165 -2.17817,-3.663779 -1.28538,-4.556576 0.6157,-0.615699 1.81726,-0.446118 2.94756,0.416 1.77313,1.352429 2.67284,1.067683 4.20769,-1.331664 1.21453,-1.898617 1.8215,-2.305267 2.54483,-1.704953 0.99617,0.826752 0.30235,4.072038 -1.21935,5.703392 -1.72039,1.844364 -5.54722,2.628198 -7.19535,1.473801 z m 241.9782,-10.700985 c -0.64387,-0.643888 -4.74019,-1.869485 -7.40758,-2.21632 -1.452,-0.188797 -3.828,-0.498589 -5.28,-0.688426 -4.04631,-0.529014 -6.96,-2.064352 -6.96,-3.667472 0,-0.984352 1.19174,-2.388169 2.02323,-2.383244 0.38323,0.0022 1.59846,0.286806 2.70054,0.632304 1.12772,0.353533 3.85588,0.773779 6.24,0.961212 5.04007,0.396234 7.12583,0.978308 8.87712,2.477348 1.46794,1.256515 2.64643,3.30838 2.49815,4.349574 -0.0769,0.540115 -0.34951,0.716569 -1.22042,0.790064 -0.61674,0.05204 -1.27872,-0.06272 -1.47104,-0.25504 z m 5.54109,-5.164662 c -0.49021,-0.365639 -1.16733,-1.20585 -1.50471,-1.867133 -1.06931,-2.09601 -2.2064,-3.153434 -7.1654,-6.663229 -5.69546,-4.03104 -9.79856,-7.826873 -9.79856,-9.064758 0,-0.956161 0.89136,-1.879808 1.81411,-1.879808 0.73562,0 5.14189,2.57649 7.6679,4.483642 3.08477,2.32903 6.30551,5.129433 10.11799,8.797571 3.21865,3.096774 3.76,3.760927 3.76,4.612911 0,1.938477 -3.07805,2.933252 -4.89133,1.580804 z m 70.09132,-3.18056 c -0.64332,-0.374704 -0.74652,-1.893405 -0.20086,-2.955405 0.19754,-0.384429 3.26419,-3.650963 6.81475,-7.258963 5.00167,-5.08255 6.69434,-7.017216 7.51565,-8.590078 1.16682,-2.234503 2.50938,-3.167091 3.6673,-2.547394 0.51712,0.276746 0.57984,0.576011 0.42835,2.043707 -0.29818,2.888909 -1.45002,4.48517 -7.18103,9.951675 -2.88585,2.752659 -6.11062,6.061719 -7.16614,7.353463 -1.9536,2.390812 -2.62064,2.735343 -3.87802,2.002995 z m -57.51999,-9.089603 c -0.616,-0.452618 -1.37706,-1.142851 -1.69127,-1.533853 -1.15337,-1.435331 -4.04515,-6.546816 -5.1999,-9.191289 -0.65315,-1.495793 -1.81786,-3.609426 -2.58819,-4.696965 -0.77037,-1.087538 -1.40064,-2.342472 -1.40064,-2.788741 0,-1.513022 2.34576,-2.013318 3.53491,-0.753917 0.87398,0.925618 8.73369,11.685132 9.56467,13.093511 0.9823,1.664883 1.6319,4.839958 1.1777,5.756275 -0.54074,1.090899 -2.0018,1.140348 -3.39728,0.114979 z m 38,-1.1504 c -0.68288,-0.397731 -1.52,-1.951021 -1.52,-2.820336 0,-0.350765 1.02556,-2.985916 2.27904,-5.855891 2.91046,-6.663886 3.93081,-9.584506 4.69916,-13.450798 0.73914,-3.719334 1.29818,-4.727339 2.62179,-4.727339 1.17133,0 1.7072,0.767541 2.34589,3.36 1.26739,5.144337 0.9457,7.599329 -1.48237,11.312518 -1.73728,2.65681 -3.50208,6.051259 -4.84937,9.327481 -1.20362,2.926829 -2.46266,3.804618 -4.09414,2.854365 z m -20.4538,-4.94367 c -0.96745,-0.525397 -0.87513,-0.185847 -2.17286,-7.990695 -0.52675,-3.168 -1.32125,-7.543802 -1.76554,-9.724005 -1.0334,-5.0710525 -1.0342,-5.706559 -0.008,-6.1742195 1.19975,-0.5466464 2.17252,0.055657 3.55664,2.2022195 2.55389,3.960556 4.08525,9.027669 4.48212,14.830777 0.18566,2.715126 0.13152,3.229727 -0.48714,4.628309 -1.20086,2.714746 -1.90611,3.150474 -3.60541,2.227614 z"
         id="path881" />
    </g>
  </g>
</svg>
